<?xml version="1.0" encoding="utf-8"?>
<!-- Generator: Adobe Illustrator 16.0.0, SVG Export Plug-In . SVG Version: 6.00 Build 0)  -->
<!DOCTYPE svg PUBLIC "-//W3C//DTD SVG 1.1//EN" "http://www.w3.org/Graphics/SVG/1.1/DTD/svg11.dtd">
<svg version="1.1" id="Layer_1" xmlns="http://www.w3.org/2000/svg" xmlns:xlink="http://www.w3.org/1999/xlink" x="0px" y="0px"
	 width="512px" height="512px" viewBox="0 0 512 512" enable-background="new 0 0 512 512" xml:space="preserve">
<circle display="none" fill="none" stroke="#FFFFFF" stroke-miterlimit="10" cx="-64.667" cy="44" r="27.584"/>
<g>
	<path fill="#4100A8" d="M256,0L256,0c141.387,0,256,114.619,256,256l0,0c0,141.387-114.613,256-256,256l0,0
		C114.619,512,0,397.387,0,256l0,0C0,114.619,114.619,0,256,0z"/>
	<g>
		<path fill="#FFFFFF" d="M165.423,175.603c10.955-10.353,23.336-18.659,37.608-23.739c15.912-5.67,33.403-7.022,49.954-3.67
			c10.696,2.153,21.061,6.188,30.299,12.04c8.454,5.357,15.659,11.971,22.262,19.471c-4.058,3.159-8.108,6.33-12.165,9.5
			c-4.29-5.591-8.927-10.591-14.296-15.164c-6.17-5.233-13.551-9.324-21.076-12.233c-15.787-6.103-33.037-6.772-49.449-3.011
			c-9.869,2.261-19.387,6.454-27.923,11.869c-4.015,2.539-7.75,5.403-11.409,8.414c-0.321,0.262-0.355,0.455-0.617,0.148
			c-0.349-0.409-0.71-0.813-1.076-1.216C166.835,177.199,166.128,176.397,165.423,175.603z"/>
		<path fill="#FFFFFF" d="M416.216,128.244c-6.182,0.693-12.369,1.381-18.557,2.063c-3.568,0.393-7.147,0.784-10.71,1.193
			c-3.097,0.341-6.586,0.603-8.824,3.04c-3.238,3.517-0.153,8.045,2.478,10.813c2.625,2.772,5.238,5.534,7.852,8.301
			c0.909,0.949,1.802,1.893,2.705,2.847c0.204,0.228-2.137,2.512-2.409,2.813c-4.579,4.994-9.182,9.983-13.75,14.972
			c-0.233,0.244-0.454,0.488-0.671,0.728c-4.522-6.308-9.426-12.375-14.682-18.08c-2.341-2.534-4.738-5.011-7.17-7.466
			c-0.193-0.193-1.307-1.579-1.546-1.347c-0.659,0.608-1.307,1.21-1.954,1.813c-0.591,0.546-1.171,1.097-1.762,1.647
			c-0.25,0.222,1.347,1.762,1.546,1.989c2.261,2.704,4.567,5.375,6.784,8.125c2.477,3.068,4.807,6.278,7.045,9.522
			c1.125,1.619,2.216,3.25,3.278,4.887c0.563,0.875,1.125,1.75,1.671,2.636c0.278,0.438,0.551,0.875,0.813,1.318
			c0.511,0.853,0.568,0.853-0.108,1.58c-2.835,3.091-5.676,6.198-8.545,9.295c-13.153-24.704-33.591-45.659-58.864-57.943
			c-29.852-14.522-64.659-16.369-96.065-5.784c-31.383,10.592-57.982,33.171-74.039,62.058
			c-16.026,28.829-20.983,63.557-14.199,95.784c0.892,4.227,1.991,8.408,3.281,12.545c0.21,0.671,0.46,0.835-0.057,1.387
			c-0.366,0.375-0.728,0.761-1.094,1.142c-0.71,0.762-1.432,1.506-2.143,2.256c-1.488,1.579-2.972,3.147-4.469,4.728
			c-4.897,5.176-9.801,10.352-14.707,15.517c-5.23,5.518-10.454,11.052-15.69,16.574c-0.076,0.079-0.67,0.603-0.576,0.688
			c1.267,1.238,2.548,2.454,3.82,3.682c0.421,0.415,0.753,1.182,1.216,0.693c0.549-0.534,1.094-1.097,1.631-1.643
			c6.702-6.835,13.403-13.67,20.108-20.488c5.037-5.137,10.082-10.284,15.133-15.421c8.19,21.058,21.469,39.614,38.597,54.284
			c25.765,22.08,60.458,33.091,94.239,30.091c16.667-1.477,32.957-6.216,47.838-13.857c12.488-6.393,23.466-14.813,33.545-24.512
			c8.875-8.551,16.364-18.892,22.29-29.642c7.949-14.397,13.278-30.375,15.489-46.653c1.892-14.177,1.664-28.54-0.699-42.631
			c-1.143-6.676-2.738-13.284-4.824-19.733c-0.472-1.517-0.994-3.005-1.539-4.505c-0.25-0.728-0.858-1.523-0.262-2.114
			c0.716-0.716,1.443-1.432,2.159-2.159c2.613-2.591,5.228-5.17,7.847-7.75c7.188,14.966,11.506,31.671,13.017,48.159
			c1.58,17.097,0.034,34.466-4.522,51.018c-2.75,9.982-6.397,19.755-11.012,29.017c-4.147,8.284-8.852,16.125-13.926,23.853
			c5.767,3.647,11.528,7.301,17.301,10.954c7.296-12.92,13.693-26.159,18.302-40.307c5.17-15.875,8.295-32.688,8.38-49.415
			c0.086-17.164-2.397-34.107-7.738-50.438c-2.574-7.852-5.738-15.528-9.534-22.886c-0.863-1.693-1.716-3.387-2.647-5.04
			c-0.238-0.397-0.443-0.79-0.682-1.176c-0.341-0.603,0.079-0.683,0.511-1.114c0.841-0.818,1.648-1.636,2.495-2.454
			c2.813-2.784,5.636-5.568,8.448-8.341c2.864-2.853,5.739-5.693,8.625-8.546c4.244,4.483,8.489,8.966,12.739,13.443
			c2.772,2.932,7.942,6.063,10.466,1.091c1.238-2.432,1.192-5.272,1.317-7.943c0.393-7.841,0.802-15.688,1.183-23.534
			c0.159-3.267,0.329-6.522,0.488-9.784c0.159-3.102,0.125-6.113-1.329-8.966C427.046,130.131,421.625,127.637,416.216,128.244z
			 M130.73,276.415c-7.427-30.756-1.952-64.273,14.94-91.028c16.656-26.393,43.554-45.296,74.514-50.398
			c31.847-5.244,64.929,4.903,89.236,25.909c9.988,8.637,18.585,19.057,24.966,30.619c1.823,3.313,3.488,6.711,4.972,10.188
			c0.772,1.818,1.5,3.643,2.17,5.478c0.307,0.807,1.131,2.125,0.522,2.79c-0.813,0.869-1.607,1.744-2.409,2.613
			c-5.505,5.949-11.028,11.893-16.563,17.847c-11.522,12.421-23.091,24.818-34.653,37.21c-5.926,6.347-11.841,12.699-17.767,19.04
			c-2.085,2.25-4.188,4.5-6.284,6.739c-1.466,1.557-4.613,4.875-7.071,3.772c-3.19-1.427-3.602-7.205-4.185-10.262
			c-1.582-8.216-3.104-16.432-4.636-24.647c-3.097-16.693-5.87-33.46-9.281-50.068c-1.478-7.17-5.574-14.762-13.637-15.613
			c-5.435-0.58-10.537,2.216-14.324,5.909c-3.881,3.755-7.5,7.807-11.219,11.727c-5.979,6.318-11.975,12.637-17.954,18.955
			c-16.333,17.228-32.656,34.478-48.989,51.716C132.196,282.103,131.403,279.272,130.73,276.415
			C125.475,254.613,131.403,279.272,130.73,276.415z M253.801,290.522C253.847,290.671,253.818,290.579,253.801,290.522
			L253.801,290.522z M345.863,272.796c-6.017,30.295-25.022,58.352-51.113,74.908c-27.238,17.273-61.988,21.25-92.375,10.25
			c-8.821-3.182-17.137-7.5-24.897-12.732c-3.693-2.506-7.324-5.244-10.6-8.262c-0.647-0.585-1.287-1.164-1.938-1.767
			c-0.332-0.296-0.665-0.591-1.003-0.897c-0.074-0.068-0.603-0.58-0.307-0.25c-6.79-6.875-12.963-14.029-18.153-22.217
			c-2.205-3.477-4.193-7.085-5.992-10.807c-0.866-1.772-1.688-3.573-2.463-5.397c-0.313-0.75-1.21-2.028-0.604-2.637
			c0.798-0.807,1.597-1.619,2.397-2.454c5.295-5.375,10.591-10.768,15.872-16.159c11.485-11.693,22.966-23.397,34.438-35.085
			c6.1-6.211,12.19-12.427,18.287-18.637c3.647-3.716,7.185-7.603,11.014-11.119c1.637-1.455,4.364-3.512,6.662-2.603
			c3.097,1.193,3.708,6.022,4.196,8.824c1.488,8.426,2.938,16.869,4.415,25.301c2.838,16.272,5.685,32.557,8.417,48.853
			c0.614,3.631,1.165,7.522,3.068,10.732c3.369,5.733,8.855,9.506,15.781,8.336c5.897-1.012,10.205-5.068,14.262-9.131
			c6.136-6.153,12.256-12.307,18.392-18.443c17.768-17.835,35.552-35.642,53.393-53.426
			C349.341,242.869,349.022,258.034,345.863,272.796C344.284,280.682,349.238,257.046,345.863,272.796z"/>
	</g>
</g>
</svg>
