<?xml version="1.0" encoding="UTF-8"?>
<svg width="512px" height="512px" viewBox="0 0 512 512" version="1.1" xmlns="http://www.w3.org/2000/svg" xmlns:xlink="http://www.w3.org/1999/xlink">
    <title>img_square</title>
    <g id="Page-1" stroke="none" stroke-width="1" fill="none" fill-rule="evenodd">
        <g id="Artboard" transform="translate(-744.000000, -546.000000)" fill-rule="nonzero">
            <g id="img_square" transform="translate(744.000000, 546.000000)">
                <rect id="Rectangle" fill="#1C7EFF" x="0" y="0" width="512" height="512"></rect>
                <g id="Group" transform="translate(81.063944, 120.447594)" fill="#FFFFFF">
                    <path d="M335.146056,7.78240558 C328.964056,8.47440558 322.777056,9.16040558 316.589056,9.84240558 C313.021056,10.2374056 309.442056,10.6314056 305.879056,11.0354056 C302.782056,11.3794056 299.294056,11.6394056 297.055056,14.0774056 C293.817056,17.5924056 296.902056,22.1234056 299.533056,24.8924056 C302.158056,27.6624056 304.771056,30.4204056 307.386056,33.1914056 C308.295056,34.1364056 309.187056,35.0864056 310.090056,36.0354056 C310.295056,36.2624056 307.953056,38.5494056 307.681056,38.8494056 C303.102056,43.8414056 298.499056,48.8354056 293.931056,53.8214056 C293.699056,54.0664056 293.477056,54.3104056 293.261056,54.5494056 C288.738056,48.2424056 283.834056,42.1744056 278.578056,36.4734056 C276.237056,33.9364056 273.840056,31.4614056 271.408056,29.0064056 C271.215056,28.8144056 270.101056,27.4244056 269.862056,27.6574056 C269.203056,28.2614056 268.555056,28.8674056 267.908056,29.4724056 C267.317056,30.0174056 266.737056,30.5664056 266.146056,31.1144056 C265.896056,31.3394056 267.493056,32.8764056 267.692056,33.1024056 C269.953056,35.8134056 272.260056,38.4774056 274.476056,41.2304056 C276.953056,44.3014056 279.283056,47.5084056 281.521056,50.7554056 C282.646056,52.3724056 283.737056,54.0004056 284.799056,55.6424056 C285.362056,56.5144056 285.924056,57.3924056 286.470056,58.2794056 C286.748056,58.7144056 287.021056,59.1514056 287.283056,59.5974056 C287.795056,60.4494056 287.851056,60.4434056 287.175056,61.1704056 C284.340056,64.2644056 281.499056,67.3724056 278.630056,70.4664056 C265.477056,45.7614056 245.039056,24.8134056 219.766056,12.5234056 C189.914056,-1.99859442 155.110056,-3.84259442 123.703056,6.73940558 C92.3200561,17.3304056 65.7210561,39.9104056 49.6640561,68.8024056 C33.6390561,97.6314056 28.6810561,132.356406 35.4650561,164.586406 C36.3580561,168.814406 37.4560561,172.995406 38.7460561,177.131406 C38.9560561,177.802406 39.2060561,177.967406 38.6890561,178.518406 C38.3230561,178.893406 37.9610561,179.280406 37.5950561,179.661406 C36.8850561,180.422406 36.1630561,181.166406 35.4520561,181.916406 C33.9640561,183.496406 32.4810561,185.064406 30.9830561,186.644406 C26.0860561,191.820406 21.1820561,196.997406 16.2760561,202.162406 C11.0460561,207.679406 5.8220561,213.213406 0.586056099,218.735406 C0.510056099,218.815406 -0.0839439009,219.338406 0.0100560991,219.423406 C1.2770561,220.662406 2.5580561,221.878406 3.8300561,223.105406 C4.2510561,223.520406 4.5830561,224.288406 5.0460561,223.798406 C5.5950561,223.264406 6.1400561,222.701406 6.6770561,222.156406 C13.3790561,215.320406 20.0800561,208.485406 26.7850561,201.667406 C31.8220561,196.531406 36.8670561,191.383406 41.9190561,186.247406 C50.1080561,207.304406 63.3880561,225.860406 80.5150561,240.531406 C106.280056,262.610406 140.973056,273.622406 174.754056,270.622406 C191.419056,269.144406 207.708056,264.406406 222.589056,256.764406 C235.077056,250.372406 246.055056,241.951406 256.135056,232.253406 C265.010056,223.701406 272.498056,213.360406 278.424056,202.610406 C286.373056,188.213406 291.702056,172.235406 293.913056,155.957406 C295.805056,141.781406 295.577056,127.417406 293.214056,113.326406 C292.072056,106.647406 290.476056,100.037406 288.390056,93.5914056 C287.919056,92.0764056 287.396056,90.5824056 286.851056,89.0884056 C286.601056,88.3554056 285.993056,87.5634056 286.589056,86.9754056 C287.305056,86.2584056 288.032056,85.5374056 288.748056,84.8164056 C291.361056,82.2224056 293.976056,79.6394056 296.595056,77.0604056 C303.783056,92.0264056 308.101056,108.730406 309.612056,125.225406 C311.192056,142.321406 309.646056,159.691406 305.090056,176.242406 C302.340056,186.225406 298.693056,195.998406 294.078056,205.259406 C289.931056,213.543406 285.226056,221.384406 280.152056,229.112406 C285.920056,232.759406 291.680056,236.414406 297.453056,240.067406 C304.749056,227.146406 311.146056,213.908406 315.755056,199.759406 C320.925056,183.884406 324.050056,167.071406 324.136056,150.345406 C324.221056,133.180406 321.738056,116.231406 316.397056,99.9054056 C313.824056,92.0504056 310.659056,84.3774056 306.863056,77.0214056 C306.000056,75.3284056 305.147056,73.6294056 304.216056,71.9784056 C303.978056,71.5814056 303.773056,71.1924056 303.534056,70.8024056 C303.193056,70.1974056 303.613056,70.1204056 304.046056,69.6864056 C304.887056,68.8714056 305.693056,68.0494056 306.540056,67.2374056 C309.353056,64.4474056 312.176056,61.6644056 314.988056,58.8934056 C317.852056,56.0404056 320.727056,53.1974056 323.613056,50.3454056 C327.858056,54.8304056 332.102056,59.3114056 336.352056,63.7904056 C339.124056,66.7234056 344.295056,69.8534056 346.818056,64.8844056 C348.056056,62.4524056 348.011056,59.6064056 348.136056,56.9364056 C348.528056,49.0954056 348.937056,41.2514056 349.318056,33.4084056 C349.477056,30.1374056 349.647056,26.8804056 349.806056,23.6184056 C349.965056,20.5214056 349.931056,17.5084056 348.477056,14.6584056 C345.976056,9.66840558 340.555056,7.17740558 335.146056,7.78240558 Z M49.6640561,155.955406 C42.2370561,125.193406 47.7120561,91.6804056 64.6040561,64.9274056 C81.2600561,38.5324056 108.158056,19.6294056 139.118056,14.5274056 C170.965056,9.28340558 204.045056,19.4304056 228.351056,40.4394056 C238.339056,49.0694056 246.936056,59.4964056 253.317056,71.0554056 C255.140056,74.3704056 256.805056,77.7684056 258.289056,81.2434056 C259.061056,83.0584056 259.789056,84.8854056 260.459056,86.7234056 C260.766056,87.5274056 261.590056,88.8484056 260.982056,89.5094056 C260.169056,90.3764056 259.374056,91.2514056 258.573056,92.1234056 C253.067056,98.0684056 247.545056,104.015406 242.010056,109.967406 C230.487056,122.387406 218.919056,134.787406 207.357056,147.183406 C201.430056,153.530406 195.515056,159.881406 189.589056,166.223406 C187.504056,168.473406 185.401056,170.723406 183.305056,172.961406 C181.839056,174.518406 178.692056,177.836406 176.237056,176.733406 C173.047056,175.307406 172.635056,169.529406 172.052056,166.472406 C170.470056,158.255406 168.948056,150.039406 167.416056,141.824406 C164.319056,125.129406 161.546056,108.361406 158.135056,91.7514056 C156.657056,84.5834056 152.561056,76.9894056 144.498056,76.1404056 C139.063056,75.5644056 133.961056,78.3564056 130.174056,82.0464056 C126.294056,85.8054056 122.674056,89.8594056 118.955056,93.7794056 C112.976056,100.094406 106.981056,106.412406 101.001056,112.730406 C84.6690561,129.958406 68.3450561,147.210406 52.0130561,164.449406 C51.1290561,161.643406 50.3360561,158.814406 49.6640561,155.955406 C44.4080561,134.155406 50.3360561,158.814406 49.6640561,155.955406 Z M171.919056,27.7284056 C182.611056,29.8844056 192.976056,33.9184056 202.214056,39.7714056 C210.669056,45.1294056 217.873056,51.7404056 224.476056,59.2404056 C220.419056,62.3994056 216.368056,65.5694056 212.311056,68.7464056 C208.021056,63.1494056 203.385056,58.1494056 198.015056,53.5784056 C191.845056,48.3434056 184.464056,44.2524056 176.942056,41.3434056 C161.155056,35.2464056 143.905056,34.5754056 127.493056,38.3344056 C117.624056,40.5994056 108.107056,44.7914056 99.5700561,50.2034056 C95.5550561,52.7464056 91.8200561,55.6034056 88.1610561,58.6154056 C87.8400561,58.8774056 87.8060561,59.0694056 87.5450561,58.7684056 C87.1950561,58.3594056 86.8340561,57.9534056 86.4680561,57.5464056 C85.7680561,56.7374056 85.0610561,55.9394056 84.3570561,55.1374056 C95.3110561,44.7854056 107.692056,36.4844056 121.964056,31.3994056 C137.876056,25.7314056 155.367056,24.3774056 171.919056,27.7284056 Z M213.680056,227.245406 C186.442056,244.517406 151.695056,248.495406 121.308056,237.495406 C112.487056,234.313406 104.171056,229.995406 96.4110561,224.762406 C92.7180561,222.256406 89.0870561,219.518406 85.8110561,216.501406 C85.1640561,215.915406 84.5240561,215.336406 83.8730561,214.733406 C83.5410561,214.438406 83.2080561,214.142406 82.8700561,213.836406 C82.8469311,213.815156 82.7793725,213.750546 82.7064428,213.681823 L82.6188491,213.599892 C82.4910913,213.48157 82.3965561,213.400781 82.5630561,213.586406 C75.7730561,206.711406 69.6000561,199.558406 64.4100561,191.370406 C62.2050561,187.892406 60.2170561,184.285406 58.4190561,180.563406 C57.5520561,178.790406 56.7310561,176.989406 55.9550561,175.165406 C55.6420561,174.415406 54.7450561,173.137406 55.3510561,172.529406 C56.1490561,171.722406 56.9480561,170.910406 57.7480561,170.074406 C63.0440561,164.699406 68.3390561,159.307406 73.6200561,153.915406 C85.1060561,142.223406 96.5860561,130.518406 108.058056,118.827406 C114.158056,112.620406 120.248056,106.401406 126.345056,100.191406 C129.992056,96.4744056 133.530056,92.5884056 137.359056,89.0744056 C138.996056,87.6204056 141.723056,85.5604056 144.021056,86.4674056 C147.118056,87.6654056 147.729056,92.4954056 148.217056,95.2934056 C149.705056,103.717406 151.155056,112.165406 152.632056,120.598406 C155.470056,136.870406 158.317056,153.155406 161.049056,169.450406 C161.663056,173.081406 162.214056,176.973406 164.117056,180.183406 C167.486056,185.915406 172.972056,189.689406 179.895056,188.518406 C185.793056,187.506406 190.100056,183.450406 194.157056,179.387406 C200.294056,173.234406 206.413056,167.080406 212.549056,160.944406 C230.317056,143.109406 248.101056,125.297406 265.942056,107.518406 C268.218124,122.069019 267.966143,136.88514 265.005042,151.329286 L264.85,152.071 L264.892822,151.875474 C266.626161,143.788913 265.973818,146.984272 265.276495,150.292786 L265.198949,150.660297 C264.966468,151.760822 264.738622,152.827957 264.602103,153.448046 L264.560098,153.637618 C264.412958,154.296489 264.430656,154.150416 264.794056,152.336406 C258.776056,182.631406 239.771056,210.689406 213.680056,227.245406 Z" id="Shape"></path>
                </g>
            </g>
        </g>
    </g>
</svg>