<?xml version="1.0" encoding="UTF-8"?>
<svg width="513px" height="512px" viewBox="0 0 513 512" version="1.1" xmlns="http://www.w3.org/2000/svg" xmlns:xlink="http://www.w3.org/1999/xlink">
    <title>img_circle</title>
    <g id="Page-1" stroke="none" stroke-width="1" fill="none" fill-rule="evenodd">
        <g id="Artboard" transform="translate(-197.000000, -952.000000)" fill-rule="nonzero">
            <g id="Group" transform="translate(197.251000, 952.000000)">
                <path d="M256,0 L256,0 C397.387,0 512,114.619 512,256 L512,256 C512,397.387 397.387,512 256,512 L256,512 C114.619,512 0,397.387 0,256 L0,256 C0,114.619 114.619,0 256,0 Z" id="-g-Path" fill="#1C7EFF"></path>
                <g transform="translate(81.067944, 120.465328)" fill="#FFFFFF" id="Shape">
                    <path d="M335.148056,7.77867169 C328.966056,8.47167169 322.779056,9.15967169 316.591056,9.84167169 C313.023056,10.2346717 309.444056,10.6256717 305.881056,11.0346717 C302.784056,11.3756717 299.295056,11.6376717 297.057056,14.0746717 C293.819056,17.5916717 296.904056,22.1196717 299.535056,24.8876717 C302.160056,27.6596717 304.773056,30.4216717 307.387056,33.1886717 C308.296056,34.1376717 309.189056,35.0816717 310.092056,36.0356717 C310.296056,36.2636717 307.955056,38.5476717 307.683056,38.8486717 C303.104056,43.8426717 298.501056,48.8316717 293.933056,53.8206717 C293.700056,54.0646717 293.479056,54.3086717 293.262056,54.5486717 C288.740056,48.2406717 283.836056,42.1736717 278.580056,36.4686717 C276.239056,33.9346717 273.842056,31.4576717 271.410056,29.0026717 C271.217056,28.8096717 270.103056,27.4236717 269.864056,27.6556717 C269.205056,28.2636717 268.557056,28.8656717 267.910056,29.4686717 C267.319056,30.0146717 266.739056,30.5656717 266.148056,31.1156717 C265.898056,31.3376717 267.495056,32.8776717 267.694056,33.1046717 C269.955056,35.8086717 272.261056,38.4796717 274.478056,41.2296717 C276.955056,44.2976717 279.285056,47.5076717 281.523056,50.7516717 C282.648056,52.3706717 283.739056,54.0016717 284.801056,55.6386717 C285.364056,56.5136717 285.926056,57.3886717 286.472056,58.2746717 C286.750056,58.7126717 287.023056,59.1496717 287.285056,59.5926717 C287.796056,60.4456717 287.853056,60.4456717 287.177056,61.1726717 C284.342056,64.2636717 281.501056,67.3706717 278.632056,70.4676717 C265.479056,45.7636717 245.041056,24.8086717 219.768056,12.5246717 C189.916056,-1.99732831 155.109056,-3.84432831 123.703056,6.74067169 C92.3200561,17.3326717 65.7210561,39.9116717 49.6640561,68.7986717 C33.6380561,97.6276717 28.6810561,132.355672 35.4650561,164.582672 C36.3570561,168.809672 37.4560561,172.990672 38.7460561,177.127672 C38.9560561,177.798672 39.2060561,177.962672 38.6890561,178.514672 C38.3230561,178.889672 37.9610561,179.275672 37.5950561,179.656672 C36.8850561,180.418672 36.1630561,181.162672 35.4520561,181.912672 C33.9640561,183.491672 32.4800561,185.059672 30.9830561,186.640672 C26.0860561,191.816672 21.1820561,196.992672 16.2760561,202.157672 C11.0460561,207.675672 5.8220561,213.209672 0.586056099,218.731672 C0.510056099,218.810672 -0.0839439009,219.334672 0.0100560991,219.419672 C1.2770561,220.657672 2.5580561,221.873672 3.8300561,223.101672 C4.2510561,223.516672 4.5830561,224.283672 5.0460561,223.794672 C5.5950561,223.260672 6.1400561,222.697672 6.6770561,222.151672 C13.3790561,215.316672 20.0800561,208.481672 26.7850561,201.663672 C31.8220561,196.526672 36.8670561,191.379672 41.9180561,186.242672 C50.1080561,207.300672 63.3870561,225.856672 80.5150561,240.526672 C106.280056,262.606672 140.973056,273.617672 174.754056,270.617672 C191.421056,269.140672 207.711056,264.401672 222.592056,256.760672 C235.080056,250.367672 246.058056,241.947672 256.137056,232.248672 C265.012056,223.697672 272.501056,213.356672 278.427056,202.606672 C286.376056,188.209672 291.705056,172.231672 293.916056,155.953672 C295.808056,141.776672 295.580056,127.413672 293.217056,113.322672 C292.074056,106.646672 290.479056,100.038672 288.393056,93.5896717 C287.921056,92.0726717 287.399056,90.5846717 286.854056,89.0846717 C286.604056,88.3566717 285.996056,87.5616717 286.592056,86.9706717 C287.308056,86.2546717 288.035056,85.5386717 288.751056,84.8116717 C291.364056,82.2206717 293.979056,79.6416717 296.598056,77.0616717 C303.786056,92.0276717 308.104056,108.732672 309.615056,125.220672 C311.195056,142.317672 309.649056,159.686672 305.093056,176.238672 C302.343056,186.220672 298.696056,195.993672 294.081056,205.255672 C289.934056,213.539672 285.229056,221.380672 280.155056,229.108672 C285.922056,232.755672 291.683056,236.409672 297.456056,240.062672 C304.752056,227.142672 311.149056,213.903672 315.758056,199.755672 C320.928056,183.880672 324.053056,167.067672 324.138056,150.340672 C324.224056,133.176672 321.741056,116.233672 316.400056,99.9026717 C313.826056,92.0506717 310.662056,84.3746717 306.866056,77.0166717 C306.003056,75.3236717 305.150056,73.6296717 304.219056,71.9766717 C303.981056,71.5796717 303.776056,71.1866717 303.537056,70.8006717 C303.196056,70.1976717 303.616056,70.1176717 304.048056,69.6866717 C304.889056,68.8686717 305.696056,68.0506717 306.543056,67.2326717 C309.356056,64.4486717 312.179056,61.6646717 314.991056,58.8916717 C317.855056,56.0386717 320.730056,53.1986717 323.616056,50.3456717 C327.860056,54.8286717 332.105056,59.3116717 336.355056,63.7886717 C339.127056,66.7206717 344.297056,69.8516717 346.821056,64.8796717 C348.059056,62.4476717 348.013056,59.6076717 348.138056,56.9366717 C348.531056,49.0956717 348.940056,41.2486717 349.321056,33.4026717 C349.480056,30.1356717 349.650056,26.8806717 349.809056,23.6186717 C349.968056,20.5166717 349.934056,17.5056717 348.480056,14.6526717 C345.978056,9.66567169 340.557056,7.17167169 335.148056,7.77867169 Z M49.6620561,155.949672 C42.2350561,125.193672 47.7100561,91.6766717 64.6020561,64.9216717 C81.2580561,38.5286717 108.156056,19.6256717 139.116056,14.5236717 C170.963056,9.27967169 204.045056,19.4266717 228.352056,40.4326717 C238.340056,49.0696717 246.937056,59.4896717 253.318056,71.0516717 C255.141056,74.3646717 256.806056,77.7626717 258.290056,81.2396717 C259.062056,83.0576717 259.790056,84.8826717 260.460056,86.7176717 C260.767056,87.5246717 261.591056,88.8426717 260.982056,89.5076717 C260.169056,90.3766717 259.375056,91.2516717 258.573056,92.1206717 C253.068056,98.0696717 247.545056,104.013672 242.010056,109.967672 C230.488056,122.388672 218.919056,134.785672 207.357056,147.177672 C201.431056,153.524672 195.516056,159.876672 189.590056,166.217672 C187.505056,168.467672 185.402056,170.717672 183.306056,172.956672 C181.840056,174.513672 178.693056,177.831672 176.235056,176.728672 C173.045056,175.301672 172.633056,169.523672 172.050056,166.466672 C170.468056,158.250672 168.946056,150.034672 167.414056,141.819672 C164.317056,125.126672 161.544056,108.359672 158.133056,91.7516717 C156.655056,84.5816717 152.559056,76.9896717 144.496056,76.1386717 C139.061056,75.5586717 133.959056,78.3546717 130.172056,82.0476717 C126.291056,85.8026717 122.672056,89.8546717 118.953056,93.7746717 C112.974056,100.092672 106.978056,106.411672 100.999056,112.729672 C84.6660561,129.957672 68.3430561,147.207672 52.0100561,164.445672 C51.1280561,161.637672 50.3350561,158.806672 49.6620561,155.949672 C44.4070561,134.147672 50.3350561,158.806672 49.6620561,155.949672 Z M171.917056,27.7286717 C182.613056,29.8816717 192.978056,33.9166717 202.216056,39.7686717 C210.670056,45.1256717 217.875056,51.7396717 224.478056,59.2396717 C220.420056,62.3986717 216.370056,65.5696717 212.313056,68.7396717 C208.023056,63.1486717 203.386056,58.1486717 198.017056,53.5756717 C191.847056,48.3426717 184.466056,44.2516717 176.941056,41.3426717 C161.154056,35.2396717 143.904056,34.5706717 127.492056,38.3316717 C117.623056,40.5926717 108.105056,44.7856717 99.5690561,50.2006717 C95.5540561,52.7396717 91.8190561,55.6036717 88.1600561,58.6146717 C87.8390561,58.8766717 87.8050561,59.0696717 87.5430561,58.7626717 C87.1940561,58.3536717 86.8330561,57.9496717 86.4670561,57.5466717 C85.7670561,56.7336717 85.0600561,55.9316717 84.3550561,55.1376717 C95.3100561,44.7846717 107.691056,36.4786717 121.963056,31.3986717 C137.875056,25.7286717 155.366056,24.3766717 171.917056,27.7286717 Z M213.682056,227.238672 C186.444056,244.511672 151.694056,248.488672 121.307056,237.488672 C112.486056,234.306672 104.170056,229.988672 96.4100561,224.756672 C92.7170561,222.250672 89.0860561,219.512672 85.8100561,216.494672 C85.1630561,215.909672 84.5230561,215.330672 83.8720561,214.727672 C83.5400561,214.431672 83.2070561,214.136672 82.8690561,213.830672 C82.7950561,213.762672 82.2660561,213.250672 82.5620561,213.580672 C75.7720561,206.705672 69.5990561,199.551672 64.4090561,191.363672 C62.2040561,187.886672 60.2160561,184.278672 58.4170561,180.556672 C57.5510561,178.784672 56.7290561,176.983672 55.9540561,175.159672 C55.6410561,174.409672 54.7440561,173.131672 55.3500561,172.522672 C56.1480561,171.715672 56.9470561,170.903672 57.7470561,170.068672 C63.0420561,164.693672 68.3380561,159.300672 73.6190561,153.909672 C85.1040561,142.216672 96.5850561,130.512672 108.057056,118.824672 C114.157056,112.613672 120.247056,106.397672 126.344056,100.187672 C129.991056,96.4716717 133.529056,92.5846717 137.358056,89.0686717 C138.995056,87.6136717 141.722056,85.5566717 144.020056,86.4656717 C147.117056,87.6586717 147.728056,92.4876717 148.216056,95.2896717 C149.704056,103.715672 151.154056,112.158672 152.631056,120.590672 C155.469056,136.862672 158.316056,153.147672 161.048056,169.443672 C161.662056,173.074672 162.213056,176.965672 164.116056,180.175672 C167.485056,185.908672 172.971056,189.681672 179.897056,188.511672 C185.794056,187.499672 190.102056,183.443672 194.159056,179.380672 C200.295056,173.227672 206.415056,167.073672 212.551056,160.937672 C230.319056,143.102672 248.103056,125.295672 265.944056,107.511672 C268.220124,122.065217 267.967188,136.879495 265.006044,151.323555 L264.816,152.229 L264.893822,151.869917 C265.920992,147.079718 266.110491,146.250036 265.949317,147.057357 L265.915107,147.227346 C265.80086,147.791461 265.585289,148.827585 265.355068,149.922184 L265.277904,150.288648 C264.696889,153.044867 264.084506,155.879372 264.795056,152.330672 C258.778056,182.625672 239.773056,210.682672 213.682056,227.238672 Z"></path>
                </g>
            </g>
        </g>
    </g>
</svg>