<?xml version="1.0" encoding="utf-8"?>
<!-- Generator: Adobe Illustrator 16.0.0, SVG Export Plug-In . SVG Version: 6.00 Build 0)  -->
<!DOCTYPE svg PUBLIC "-//W3C//DTD SVG 1.1//EN" "http://www.w3.org/Graphics/SVG/1.1/DTD/svg11.dtd">
<svg version="1.1" id="Layer_1" xmlns="http://www.w3.org/2000/svg" xmlns:xlink="http://www.w3.org/1999/xlink" x="0px" y="0px"
	 width="512px" height="512px" viewBox="0 0 512 512" enable-background="new 0 0 512 512" xml:space="preserve">
<g>
	<rect fill="#4100A8" width="512" height="512"/>
	<g>
		<path fill="#FFFFFF" d="M165.421,175.585c10.954-10.352,23.335-18.653,37.607-23.738c15.912-5.668,33.403-7.022,49.955-3.671
			c10.692,2.156,21.057,6.19,30.295,12.043c8.455,5.358,15.659,11.969,22.262,19.469c-4.057,3.159-8.108,6.329-12.165,9.506
			c-4.29-5.597-8.926-10.597-14.296-15.168c-6.17-5.235-13.551-9.326-21.073-12.235c-15.787-6.097-33.037-6.768-49.449-3.009
			c-9.869,2.265-19.386,6.457-27.923,11.869c-4.015,2.543-7.75,5.4-11.409,8.412c-0.321,0.262-0.355,0.454-0.616,0.153
			c-0.35-0.409-0.711-0.815-1.077-1.222C166.832,177.185,166.125,176.387,165.421,175.585z"/>
		<path fill="#FFFFFF" d="M416.21,128.23c-6.182,0.692-12.369,1.378-18.557,2.06c-3.568,0.395-7.147,0.789-10.71,1.193
			c-3.097,0.344-6.585,0.604-8.824,3.042c-3.238,3.515-0.153,8.046,2.478,10.815c2.625,2.77,5.238,5.528,7.853,8.299
			c0.909,0.945,1.801,1.895,2.704,2.844c0.205,0.227-2.137,2.514-2.409,2.814c-4.579,4.992-9.182,9.986-13.75,14.972
			c-0.232,0.245-0.454,0.489-0.67,0.728c-4.523-6.307-9.427-12.375-14.683-18.076c-2.341-2.537-4.738-5.012-7.17-7.467
			c-0.193-0.192-1.307-1.582-1.546-1.349c-0.659,0.604-1.307,1.21-1.954,1.815c-0.591,0.545-1.171,1.094-1.762,1.642
			c-0.25,0.225,1.347,1.762,1.546,1.988c2.261,2.711,4.568,5.375,6.784,8.128c2.477,3.071,4.807,6.278,7.045,9.525
			c1.125,1.617,2.216,3.245,3.278,4.887c0.563,0.872,1.125,1.75,1.671,2.637c0.278,0.435,0.551,0.872,0.813,1.318
			c0.512,0.852,0.568,0.846-0.108,1.573c-2.835,3.094-5.676,6.202-8.545,9.296c-13.153-24.705-33.591-45.653-58.864-57.943
			c-29.852-14.522-64.656-16.366-96.063-5.784c-31.383,10.591-57.982,33.171-74.039,62.063
			c-16.025,28.829-20.983,63.554-14.199,95.784c0.893,4.228,1.991,8.409,3.281,12.545c0.21,0.671,0.46,0.836-0.057,1.387
			c-0.366,0.375-0.728,0.762-1.094,1.143c-0.71,0.761-1.432,1.505-2.143,2.255c-1.488,1.58-2.971,3.148-4.469,4.728
			c-4.897,5.176-9.801,10.353-14.707,15.518c-5.23,5.517-10.454,11.051-15.69,16.573c-0.076,0.08-0.67,0.603-0.576,0.688
			c1.267,1.239,2.548,2.455,3.82,3.682c0.421,0.415,0.753,1.183,1.216,0.693c0.549-0.534,1.094-1.097,1.631-1.642
			c6.702-6.836,13.403-13.671,20.108-20.489c5.037-5.136,10.082-10.284,15.134-15.42c8.189,21.057,21.469,39.613,38.596,54.284
			c25.765,22.079,60.458,33.091,94.239,30.091c16.665-1.478,32.954-6.216,47.835-13.858c12.488-6.392,23.466-14.813,33.546-24.511
			c8.875-8.552,16.363-18.893,22.289-29.643c7.949-14.397,13.278-30.375,15.489-46.653c1.892-14.176,1.664-28.54-0.699-42.631
			c-1.142-6.679-2.738-13.289-4.824-19.735c-0.471-1.515-0.994-3.009-1.539-4.503c-0.25-0.733-0.858-1.525-0.262-2.113
			c0.716-0.717,1.443-1.438,2.159-2.159c2.613-2.594,5.228-5.177,7.847-7.756c7.188,14.966,11.506,31.67,13.017,48.165
			c1.58,17.096,0.034,34.466-4.522,51.017c-2.75,9.983-6.397,19.756-11.012,29.017c-4.147,8.284-8.852,16.125-13.926,23.853
			c5.768,3.647,11.528,7.302,17.301,10.955c7.296-12.921,13.693-26.159,18.302-40.308c5.17-15.875,8.295-32.688,8.381-49.414
			c0.085-17.165-2.398-34.114-7.739-50.44c-2.573-7.855-5.738-15.528-9.534-22.884c-0.863-1.693-1.716-3.392-2.647-5.043
			c-0.238-0.397-0.443-0.786-0.682-1.176c-0.341-0.605,0.079-0.682,0.512-1.116c0.841-0.815,1.647-1.637,2.494-2.449
			c2.813-2.79,5.636-5.573,8.448-8.344c2.864-2.853,5.739-5.696,8.625-8.548c4.245,4.485,8.489,8.966,12.739,13.445
			c2.772,2.933,7.943,6.063,10.466,1.094c1.238-2.432,1.193-5.278,1.318-7.948c0.392-7.841,0.801-15.685,1.182-23.528
			c0.159-3.271,0.329-6.528,0.488-9.79c0.159-3.097,0.125-6.11-1.329-8.96C427.04,130.116,421.619,127.625,416.21,128.23z
			 M130.728,276.403c-7.427-30.762-1.952-64.275,14.94-91.028c16.656-26.395,43.554-45.298,74.514-50.4
			c31.847-5.244,64.927,4.903,89.233,25.912c9.988,8.63,18.585,19.057,24.966,30.616c1.823,3.315,3.488,6.713,4.972,10.188
			c0.772,1.815,1.5,3.642,2.17,5.48c0.307,0.804,1.131,2.125,0.523,2.786c-0.813,0.867-1.608,1.742-2.409,2.614
			c-5.506,5.945-11.028,11.892-16.563,17.844c-11.523,12.42-23.091,24.82-34.653,37.216c-5.927,6.347-11.842,12.698-17.768,19.04
			c-2.085,2.25-4.188,4.5-6.284,6.738c-1.466,1.557-4.613,4.875-7.068,3.772c-3.19-1.426-3.602-7.204-4.185-10.261
			c-1.582-8.217-3.104-16.433-4.636-24.648c-3.097-16.695-5.87-33.463-9.281-50.073c-1.478-7.168-5.574-14.762-13.637-15.611
			c-5.435-0.576-10.537,2.216-14.324,5.906c-3.88,3.759-7.5,7.813-11.219,11.733c-5.979,6.315-11.974,12.633-17.954,18.951
			c-16.332,17.228-32.656,34.48-48.988,51.719C132.193,282.091,131.4,279.262,130.728,276.403
			C125.472,254.603,131.4,279.262,130.728,276.403z M253.798,290.512C253.844,290.659,253.815,290.568,253.798,290.512
			L253.798,290.512z M345.858,272.784c-6.018,30.295-25.023,58.353-51.114,74.909c-27.238,17.272-61.985,21.25-92.372,10.25
			c-8.821-3.182-17.137-7.5-24.897-12.733c-3.693-2.506-7.324-5.244-10.6-8.261c-0.647-0.586-1.287-1.165-1.938-1.768
			c-0.332-0.295-0.665-0.591-1.003-0.897c-0.074-0.068-0.603-0.58-0.307-0.25c-6.79-6.875-12.963-14.028-18.153-22.216
			c-2.205-3.478-4.193-7.085-5.991-10.807c-0.867-1.773-1.688-3.574-2.464-5.398c-0.313-0.75-1.21-2.028-0.604-2.636
			c0.798-0.807,1.597-1.619,2.397-2.455c5.296-5.375,10.591-10.767,15.872-16.159c11.486-11.692,22.966-23.397,34.438-35.088
			c6.1-6.207,12.19-12.426,18.287-18.636c3.647-3.717,7.185-7.603,11.014-11.117c1.637-1.454,4.364-3.514,6.662-2.607
			c3.097,1.198,3.708,6.028,4.196,8.826c1.488,8.424,2.938,16.872,4.415,25.305c2.838,16.272,5.685,32.557,8.417,48.852
			c0.614,3.631,1.165,7.523,3.068,10.733c3.369,5.732,8.855,9.506,15.778,8.335c5.898-1.012,10.205-5.068,14.262-9.131
			c6.137-6.153,12.256-12.307,18.392-18.443c17.768-17.835,35.552-35.647,53.393-53.426
			C349.335,242.855,349.017,258.022,345.858,272.784C344.278,280.671,349.233,257.028,345.858,272.784z"/>
	</g>
</g>
</svg>
