<?xml version="1.0" encoding="UTF-8"?>
<svg width="32px" height="32px" viewBox="0 0 32 32" version="1.1" xmlns="http://www.w3.org/2000/svg" xmlns:xlink="http://www.w3.org/1999/xlink">
    <title>32x32</title>
    <g id="Page-1" stroke="none" stroke-width="1" fill="none" fill-rule="evenodd">
        <g id="Artboard" transform="translate(-1000.000000, -315.000000)" fill-rule="nonzero">
            <g id="32x32" transform="translate(1000.000000, 315.000000)">
                <path d="M16,0 C24.8367,0 32,7.16369 32,16 C32,24.8367 24.8367,32 16,32 C7.16369,32 0,24.8367 0,16 C0,7.16369 7.16369,0 16,0 Z" id="Path" fill="#1C7EFF"></path>
                <path d="M26.9901,7.23663 C26.566,7.28417 26.1416,7.33136 25.7172,7.37814 C25.4724,7.4051 25.2269,7.43192 24.9825,7.45997 C24.7701,7.48336 24.5308,7.50134 24.3772,7.6685 C24.1551,7.90974 24.3668,8.22034 24.5472,8.4102 C24.7273,8.60035 24.9065,8.7898 25.0858,8.9796 C25.1482,9.0447 25.2094,9.10945 25.2714,9.17489 C25.2854,9.19053 25.1248,9.34719 25.1061,9.36784 C24.792,9.7104 24.4763,10.0526 24.163,10.3948 C24.147,10.4116 24.1318,10.4283 24.1169,10.4448 C23.8068,10.0121 23.4704,9.59592 23.1098,9.20459 C22.9493,9.03077 22.7848,8.86087 22.618,8.69247 C22.6048,8.67923 22.5284,8.58416 22.512,8.60007 C22.4668,8.64178 22.4223,8.68307 22.3779,8.72443 C22.3374,8.76188 22.2976,8.79968 22.2571,8.83741 C22.2399,8.85263 22.3495,8.95827 22.3631,8.97384 C22.5182,9.15932 22.6764,9.34253 22.8285,9.53116 C22.9984,9.74161 23.1582,9.9618 23.3117,10.1843 C23.3889,10.2954 23.4637,10.4072 23.5366,10.5195 C23.5752,10.5796 23.6137,10.6396 23.6512,10.7003 C23.6703,10.7304 23.689,10.7604 23.7069,10.7908 C23.742,10.8493 23.7459,10.8493 23.6995,10.8991 C23.5051,11.1112 23.3102,11.3243 23.1134,11.5367 C22.2112,9.84217 20.8093,8.40479 19.0757,7.56218 C17.028,6.56606 14.6405,6.43937 12.4862,7.16543 C10.3336,7.89198 8.50903,9.44076 7.40762,11.4222 C6.30834,13.3997 5.96832,15.7818 6.43366,17.9924 C6.49484,18.2824 6.57023,18.5691 6.65872,18.8529 C6.67312,18.8989 6.69027,18.9102 6.65481,18.9481 C6.6297,18.9738 6.60487,19.0003 6.57976,19.0264 C6.53106,19.0787 6.48154,19.1297 6.43277,19.1811 C6.3307,19.2895 6.22891,19.397 6.12622,19.5055 C5.79032,19.8605 5.45393,20.2155 5.11741,20.5698 C4.75867,20.9483 4.40033,21.3279 4.04118,21.7067 C4.03596,21.7121 3.99522,21.7481 4.00167,21.7539 C4.08857,21.8388 4.17644,21.9222 4.26369,22.0065 C4.29257,22.0349 4.31535,22.0875 4.3471,22.054 C4.38476,22.0174 4.42215,21.9787 4.45898,21.9413 C4.9187,21.4725 5.37834,21.0036 5.83826,20.5359 C6.18377,20.1836 6.52983,19.8305 6.87629,19.4782 C7.43808,20.9226 8.34893,22.1954 9.52381,23.2017 C11.2911,24.7163 13.6709,25.4715 15.988,25.2658 C17.1313,25.1644 18.2487,24.8394 19.2694,24.3153 C20.126,23.8767 20.879,23.2992 21.5704,22.6339 C22.1792,22.0473 22.6929,21.338 23.0993,20.6006 C23.6446,19.6131 24.0101,18.5171 24.1618,17.4005 C24.2916,16.4281 24.2759,15.4429 24.1138,14.4763 C24.0354,14.0184 23.926,13.5651 23.783,13.1227 C23.7506,13.0187 23.7148,12.9166 23.6774,12.8137 C23.6602,12.7638 23.6185,12.7093 23.6594,12.6687 C23.7085,12.6196 23.7584,12.5705 23.8075,12.5206 C23.9867,12.3429 24.1661,12.166 24.3458,11.989 C24.8388,13.0156 25.135,14.1615 25.2386,15.2924 C25.347,16.4652 25.241,17.6566 24.9285,18.7919 C24.7398,19.4766 24.4897,20.147 24.1731,20.7823 C23.8887,21.3506 23.5659,21.8884 23.2179,22.4185 C23.6135,22.6687 24.0086,22.9193 24.4046,23.1699 C24.9051,22.2836 25.3439,21.3755 25.66,20.4051 C26.0146,19.3161 26.229,18.1629 26.2348,17.0155 C26.2407,15.8382 26.0704,14.676 25.7041,13.5558 C25.5275,13.0172 25.3105,12.4906 25.0501,11.9859 C24.9909,11.8698 24.9324,11.7536 24.8685,11.6402 C24.8522,11.613 24.8381,11.586 24.8217,11.5596 C24.7983,11.5182 24.8272,11.5127 24.8568,11.4831 C24.9145,11.427 24.9698,11.3709 25.0279,11.3148 C25.2209,11.1238 25.4145,10.9329 25.6074,10.7427 C25.8039,10.547 26.0011,10.3522 26.199,10.1565 C26.4901,10.464 26.7813,10.7715 27.0728,11.0786 C27.263,11.2797 27.6176,11.4945 27.7907,11.1534 C27.8757,10.9866 27.8725,10.7918 27.8811,10.6086 C27.908,10.0707 27.9361,9.53247 27.9622,8.99428 C27.9731,8.77018 27.9848,8.54691 27.9957,8.32316 C28.0066,8.11038 28.0043,7.90384 27.9045,7.70815 C27.7329,7.36607 27.3611,7.195 26.9901,7.23663 Z M7.40748,17.4002 C6.89804,15.2906 7.27359,12.9915 8.43228,11.1563 C9.57477,9.34589 11.4198,8.04926 13.5435,7.6993 C15.728,7.33959 17.9972,8.03561 19.6645,9.47649 C20.3496,10.0689 20.9393,10.7837 21.377,11.5768 C21.5021,11.804 21.6163,12.0371 21.7181,12.2756 C21.771,12.4003 21.821,12.5255 21.8669,12.6514 C21.888,12.7067 21.9445,12.7971 21.9027,12.8427 C21.847,12.9023 21.7925,12.9624 21.7375,13.022 C21.3599,13.43 20.981,13.8378 20.6014,14.2462 C19.811,15.0982 19.0175,15.9485 18.2244,16.7985 C17.8179,17.2339 17.4122,17.6696 17.0057,18.1046 C16.8627,18.2589 16.7184,18.4132 16.5746,18.5668 C16.4741,18.6736 16.2582,18.9012 16.0896,18.8256 C15.8708,18.7277 15.8425,18.3313 15.8025,18.1216 C15.694,17.5581 15.5896,16.9945 15.4845,16.431 C15.2721,15.286 15.0819,14.1359 14.8479,12.9967 C14.7465,12.5048 14.4656,11.9841 13.9125,11.9257 C13.5397,11.8859 13.1897,12.0777 12.93,12.331 C12.6638,12.5886 12.4155,12.8665 12.1604,13.1354 C11.7503,13.5688 11.339,14.0022 10.9289,14.4356 C9.80854,15.6174 8.68889,16.8006 7.56854,17.983 C7.50804,17.7904 7.45365,17.5962 7.40748,17.4002 C7.04702,15.9048 7.45365,17.5962 7.40748,17.4002 Z M18.6582,22.2902 C16.7899,23.475 14.4062,23.7478 12.3219,22.9933 C11.7168,22.775 11.1464,22.4789 10.6141,22.12 C10.3608,21.9481 10.1117,21.7603 9.88701,21.5533 C9.84263,21.5131 9.79873,21.4734 9.75408,21.432 C9.73131,21.4117 9.70846,21.3915 9.68528,21.3705 C9.68147,21.36705 9.66011,21.3463875 9.65823219,21.3458484 L9.6619797,21.3510651 L9.39004928,21.0677328 C9.0317952,20.68268 8.70384,20.27876 8.41904,19.8294 C8.26779,19.5909 8.13142,19.3434 8.00802,19.0881 C7.94862,18.9666 7.89224,18.843 7.83908,18.7179 C7.81761,18.6665 7.75608,18.5788 7.79765,18.5371 C7.85238,18.4817 7.90719,18.426 7.96207,18.3687 L9.05079,17.2603 L9.05079,17.2603 C9.83859,16.4582 10.6261,15.6554 11.413,14.8537 L12.6674,13.5753 L12.6674,13.5753 C12.9176,13.3204 13.1602,13.0538 13.4229,12.8126 C13.5352,12.7128 13.7222,12.5717 13.8799,12.6341 C14.0923,12.7159 14.1342,13.0471 14.1677,13.2393 C14.2697,13.8173 14.3692,14.3965 14.4705,14.9748 C14.6652,16.091 14.8605,17.208 15.0479,18.3258 C15.09,18.5749 15.1278,18.8418 15.2583,19.062 C15.4894,19.4552 15.8657,19.714 16.3408,19.6338 C16.7453,19.5644 17.0408,19.2862 17.3191,19.0075 C17.74,18.5854 18.1598,18.1633 18.5807,17.7424 C19.7994,16.519 21.0193,15.2976 22.2431,14.0777 C22.4028,15.0992 22.381,16.1394 22.1643,17.152 L22.1903357,17.030681 C22.2754306,16.6348557 22.2494354,16.7639625 22.2105,16.949725 L22.1885691,17.0538542 C22.1738795,17.1232667 22.1598385,17.1889125 22.1511656,17.228275 L22.1427722,17.2647917 C22.1406472,17.2722417 22.14625,17.24215 22.1643,17.152 L22.1639797,17.1520651 L22.1025256,17.4343655 C21.6319866,19.4034246 20.36655,21.2062182 18.6582,22.2902 Z M15.7931,8.60505 C16.5268,8.75273 17.2377,9.02951 17.8714,9.43092 C18.4513,9.79837 18.9455,10.2521 19.3984,10.7665 C19.1201,10.9832 18.8423,11.2007 18.564,11.4181 C18.2697,11.0346 17.9516,10.6917 17.5834,10.378 C17.1601,10.019 16.6539,9.73842 16.1377,9.53888 C15.0548,9.12026 13.8716,9.07437 12.7458,9.33235 C12.0688,9.48744 11.416,9.77505 10.8304,10.1465 C10.555,10.3206 10.2988,10.5171 10.0479,10.7236 C10.0258,10.7416 10.0235,10.7548 10.0055,10.7338 C9.9816,10.7057 9.95684,10.678 9.93174,10.6504 C9.88372,10.5946 9.83522,10.5396 9.78687,10.4851 C10.5383,9.77498 11.3876,9.20524 12.3665,8.85679 C13.458,8.46786 14.6578,8.37512 15.7931,8.60505 Z" id="Shape" fill="#FFFFFF"></path>
            </g>
        </g>
    </g>
</svg>