<?xml version="1.0" encoding="UTF-8"?>
<svg width="512px" height="512px" viewBox="0 0 512 512" version="1.1" xmlns="http://www.w3.org/2000/svg" xmlns:xlink="http://www.w3.org/1999/xlink">
    <title>img_square (Large)</title>
    <g id="Page-1" stroke="none" stroke-width="1" fill="none" fill-rule="evenodd">
        <g id="Artboard" transform="translate(-46.000000, -1610.000000)" fill-rule="nonzero">
            <g id="img_square-(Large)" transform="translate(46.000000, 1610.000000)">
                <rect id="Rectangle" fill="#1C7EFF" x="0" y="0" width="512" height="512"></rect>
                <path d="M416.216,128.244 C410.034,128.937 403.847,129.625 397.659,130.307 C394.091,130.7 390.512,131.091 386.949,131.5 C383.852,131.841 380.363,132.103 378.125,134.54 C374.887,138.057 377.972,142.585 380.603,145.353 C383.228,148.125 385.841,150.887 388.455,153.654 C389.364,154.603 390.257,155.547 391.16,156.501 C391.364,156.729 389.023,159.013 388.751,159.314 C384.172,164.308 379.569,169.297 375.001,174.286 C374.768,174.53 374.547,174.774 374.33,175.014 C369.808,168.706 364.904,162.639 359.648,156.934 C357.307,154.4 354.91,151.923 352.478,149.468 C352.285,149.275 351.171,147.889 350.932,148.121 C350.273,148.729 349.625,149.331 348.978,149.934 C348.387,150.48 347.807,151.031 347.216,151.581 C346.966,151.803 348.563,153.343 348.762,153.57 C351.023,156.274 353.329,158.945 355.546,161.695 C358.023,164.763 360.353,167.973 362.591,171.217 C363.716,172.836 364.807,174.467 365.869,176.104 C366.432,176.979 366.994,177.854 367.54,178.74 C367.818,179.178 368.091,179.615 368.353,180.058 C368.864,180.911 368.921,180.911 368.245,181.638 C365.41,184.729 362.569,187.836 359.7,190.933 C346.547,166.229 326.109,145.274 300.836,132.99 C270.984,118.468 236.177,116.621 204.771,127.206 C173.388,137.798 146.789,160.377 130.732,189.264 C114.706,218.093 109.749,252.821 116.533,285.048 C117.425,289.275 118.524,293.456 119.814,297.593 C120.024,298.264 120.274,298.428 119.757,298.98 C119.391,299.355 119.029,299.741 118.663,300.122 C117.953,300.884 117.231,301.628 116.52,302.378 C115.032,303.957 113.548,305.525 112.051,307.106 C107.154,312.282 102.25,317.458 97.3442,322.623 C92.1142,328.141 86.8902,333.675 81.6542,339.197 C81.5782,339.276 80.9842,339.8 81.0782,339.885 C82.3452,341.123 83.6262,342.339 84.8982,343.567 C85.3192,343.982 85.6512,344.749 86.1142,344.26 C86.6632,343.726 87.2082,343.163 87.7452,342.617 C94.4472,335.782 101.148,328.947 107.853,322.129 C112.89,316.992 117.935,311.845 122.986,306.708 C131.176,327.766 144.455,346.322 161.583,360.992 C187.348,383.072 222.041,394.083 255.822,391.083 C272.489,389.606 288.779,384.867 303.66,377.226 C316.148,370.833 327.126,362.413 337.205,352.714 C346.08,344.163 353.569,333.822 359.495,323.072 C367.444,308.675 372.773,292.697 374.984,276.419 C376.876,262.242 376.648,247.879 374.285,233.788 C373.142,227.112 371.547,220.504 369.461,214.055 C368.989,212.538 368.467,211.05 367.922,209.55 C367.672,208.822 367.064,208.027 367.66,207.436 C368.376,206.72 369.103,206.004 369.819,205.277 C372.432,202.686 375.047,200.107 377.666,197.527 C384.854,212.493 389.172,229.198 390.683,245.686 C392.263,262.783 390.717,280.152 386.161,296.704 C383.411,306.686 379.764,316.459 375.149,325.721 C371.002,334.005 366.297,341.846 361.223,349.574 C366.99,353.221 372.751,356.875 378.524,360.528 C385.82,347.608 392.217,334.369 396.826,320.221 C401.996,304.346 405.121,287.533 405.206,270.806 C405.292,253.642 402.809,236.699 397.468,220.368 C394.894,212.516 391.73,204.84 387.934,197.482 C387.071,195.789 386.218,194.095 385.287,192.442 C385.049,192.045 384.844,191.652 384.605,191.266 C384.264,190.663 384.684,190.583 385.116,190.152 C385.957,189.334 386.764,188.516 387.611,187.698 C390.424,184.914 393.247,182.13 396.059,179.357 C398.923,176.504 401.798,173.664 404.684,170.811 C408.928,175.294 413.173,179.777 417.423,184.254 C420.195,187.186 425.365,190.317 427.889,185.345 C429.127,182.913 429.081,180.073 429.206,177.402 C429.599,169.561 430.008,161.714 430.389,153.868 C430.548,150.601 430.718,147.346 430.877,144.084 C431.036,140.982 431.002,137.971 429.548,135.118 C427.046,130.131 421.625,127.637 416.216,128.244 Z M130.73,276.415 C123.303,245.659 128.778,212.142 145.67,185.387 C162.326,158.994 189.224,140.091 220.184,134.989 C252.031,129.745 285.113,139.892 309.42,160.898 C319.408,169.535 328.005,179.955 334.386,191.517 C336.209,194.83 337.874,198.228 339.358,201.705 C340.13,203.523 340.858,205.348 341.528,207.183 C341.835,207.99 342.659,209.308 342.05,209.973 C341.237,210.842 340.443,211.717 339.641,212.586 C334.136,218.535 328.613,224.479 323.078,230.433 C311.556,242.854 299.987,255.251 288.425,267.643 C282.499,273.99 276.584,280.342 270.658,286.683 C268.573,288.933 266.47,291.183 264.374,293.422 C262.908,294.979 259.761,298.297 257.303,297.194 C254.113,295.767 253.701,289.989 253.118,286.932 C251.536,278.716 250.014,270.5 248.482,262.285 C245.385,245.592 242.612,228.825 239.201,212.217 C237.723,205.047 233.627,197.455 225.564,196.604 C220.129,196.024 215.027,198.82 211.24,202.513 C207.359,206.268 203.74,210.32 200.021,214.24 C194.042,220.558 188.046,226.877 182.067,233.195 C165.734,250.423 149.411,267.673 133.078,284.911 C132.196,282.103 131.403,279.272 130.73,276.415 C131.403,279.272 125.475,254.613 130.73,276.415 Z M225.088,206.931 C228.185,208.124 228.796,212.953 229.284,215.755 C230.772,224.181 232.222,232.624 233.699,241.056 C236.537,257.328 239.384,273.613 242.116,289.909 C242.73,293.54 243.281,297.431 245.184,300.641 C248.553,306.374 254.039,310.147 260.965,308.977 C266.396447,308.044895 270.479886,304.530449 274.26078,300.806664 L274.906165,300.166693 C275.0133,300.059837 275.120237,299.952921 275.227,299.846 C281.363,293.693 287.483,287.539 293.619,281.403 C311.387,263.568 329.171,245.761 347.012,227.977 C349.341,242.869 349.022,258.034 345.863,272.796 C339.846,303.091 320.841,331.148 294.75,347.704 C267.512,364.977 232.762,368.954 202.375,357.954 C193.554,354.772 185.238,350.454 177.478,345.222 C173.785,342.716 170.154,339.978 166.878,336.96 C166.231,336.375 165.591,335.796 164.94,335.193 C164.608,334.897 164.275,334.602 163.937,334.296 C163.863,334.228 163.334,333.716 163.63,334.046 C156.84,327.171 150.667,320.017 145.477,311.829 C143.272,308.352 141.284,304.744 139.485,301.022 C138.619,299.25 137.797,297.449 137.022,295.625 C136.709,294.875 135.812,293.597 136.418,292.988 C137.216,292.181 138.015,291.369 138.815,290.534 C144.11,285.159 149.406,279.766 154.687,274.375 C166.172,262.682 177.653,250.978 189.125,239.29 C195.225,233.079 201.315,226.863 207.412,220.653 C211.059,216.937 214.597,213.05 218.426,209.534 C220.063,208.079 222.79,206.022 225.088,206.931 Z M345.863,272.796 C349.238,257.046 344.284,280.682 345.863,272.796 Z M252.986,148.194 C263.682,150.347 274.047,154.382 283.285,160.234 C291.739,165.591 298.944,172.205 305.547,179.705 C301.489,182.864 297.439,186.035 293.382,189.205 C289.092,183.614 284.455,178.614 279.086,174.041 C272.916,168.808 265.535,164.717 258.01,161.808 C242.223,155.705 224.973,155.036 208.561,158.797 C198.692,161.058 189.174,165.251 180.638,170.666 C176.623,173.205 172.888,176.069 169.229,179.08 C168.908,179.342 168.874,179.535 168.612,179.228 C168.263,178.819 167.902,178.415 167.536,178.012 C166.836,177.199 166.129,176.397 165.424,175.603 C176.379,165.25 188.76,156.944 203.032,151.864 C218.944,146.194 236.435,144.842 252.986,148.194 Z" id="Shape" fill="#FFFFFF"></path>
            </g>
        </g>
    </g>
</svg>