<?xml version="1.0" encoding="UTF-8"?>
<svg width="298px" height="121px" viewBox="0 0 298 121" version="1.1" xmlns="http://www.w3.org/2000/svg" xmlns:xlink="http://www.w3.org/1999/xlink">
    <title>img_on_dark</title>
    <g id="Page-1" stroke="none" stroke-width="1" fill="none" fill-rule="evenodd">
        <g id="Artboard" transform="translate(-959.000000, -2551.000000)" fill-rule="nonzero">
            <g id="img_on_dark" transform="translate(959.000000, 2551.000000)">
                <rect id="Rectangle" fill="#000000" x="0" y="0" width="297.121" height="121.002"></rect>
                <path d="M114.255,26.0973 C112.588,26.2833 110.922,26.4683 109.255,26.6533 C108.294,26.7593 107.333,26.8663 106.373,26.9733 C105.538,27.0663 104.601,27.1353 103.996,27.7923 C103.126,28.7403 103.956,29.9593 104.664,30.7053 C105.369,31.4503 106.074,32.1943 106.78,32.9403 C107.022,33.1953 107.262,33.4503 107.506,33.7053 C107.563,33.7663 106.933,34.3843 106.859,34.4643 C105.623,35.8083 104.387,37.1523 103.152,38.4963 C103.091,38.5613 103.032,38.6263 102.972,38.6923 C101.753,36.9933 100.436,35.3583 99.0183,33.8233 C98.3863,33.1403 97.7433,32.4733 97.0873,31.8143 C97.0333,31.7613 96.7353,31.3883 96.6703,31.4493 C96.4953,31.6123 96.3193,31.7763 96.1443,31.9383 C95.9873,32.0853 95.8293,32.2323 95.6703,32.3803 C95.6043,32.4423 96.0333,32.8553 96.0873,32.9173 C96.6963,33.6463 97.3163,34.3643 97.9133,35.1053 C98.5803,35.9323 99.2083,36.7953 99.8123,37.6683 C100.111,38.1033 100.406,38.5433 100.694,38.9863 C100.846,39.2213 100.997,39.4573 101.145,39.6943 C101.219,39.8123 101.291,39.9303 101.362,40.0503 C101.499,40.2793 101.515,40.2763 101.335,40.4713 C100.568,41.3053 99.8043,42.1423 99.0343,42.9753 C95.4933,36.3233 89.9893,30.6823 83.1813,27.3723 C75.1443,23.4633 65.7693,22.9643 57.3133,25.8143 C48.8613,28.6643 41.6973,34.7473 37.3743,42.5273 C33.0583,50.2893 31.7243,59.6403 33.5513,68.3193 C33.7903,69.4593 34.0863,70.5863 34.4343,71.6983 C34.4903,71.8803 34.5593,71.9233 34.4203,72.0703 C34.3213,72.1743 34.2243,72.2773 34.1253,72.3813 C33.9343,72.5833 33.7413,72.7873 33.5493,72.9893 C33.1493,73.4123 32.7483,73.8353 32.3473,74.2583 C31.0273,75.6523 29.7063,77.0463 28.3853,78.4393 C26.9763,79.9263 25.5683,81.4143 24.1583,82.9013 C24.1373,82.9233 23.9793,83.0633 24.0023,83.0863 C24.3453,83.4173 24.6883,83.7473 25.0323,84.0783 C25.1463,84.1883 25.2333,84.3963 25.3613,84.2663 C25.5073,84.1183 25.6543,83.9693 25.7993,83.8203 C27.6033,81.9813 29.4083,80.1433 31.2133,78.3033 C32.5713,76.9193 33.9303,75.5343 35.2883,74.1503 C37.4953,79.8223 41.0703,84.8163 45.6833,88.7683 C52.6223,94.7123 61.9633,97.6773 71.0623,96.8723 C75.5493,96.4753 79.9363,95.1973 83.9433,93.1433 C87.3063,91.4193 90.2613,89.1523 92.9763,86.5393 C95.3653,84.2383 97.3803,81.4493 98.9793,78.5573 C101.12,74.6833 102.556,70.3803 103.148,65.9933 C103.66,62.1803 103.6,58.3083 102.959,54.5153 C102.653,52.7163 102.222,50.9383 101.663,49.2013 C101.533,48.7943 101.394,48.3903 101.25,47.9883 C101.18,47.7903 101.018,47.5783 101.177,47.4203 C101.371,47.2263 101.566,47.0333 101.759,46.8393 C102.461,46.1403 103.166,45.4443 103.87,44.7483 C105.808,48.7783 106.968,53.2773 107.377,57.7193 C107.803,62.3223 107.385,66.9993 106.158,71.4563 C105.418,74.1433 104.437,76.7773 103.191,79.2723 C102.079,81.5013 100.811,83.6143 99.4443,85.6953 C100.997,86.6773 102.549,87.6603 104.102,88.6423 C106.068,85.1623 107.789,81.5953 109.03,77.7883 C110.424,73.5113 111.264,68.9893 111.287,64.4823 C111.31,59.8593 110.645,55.2953 109.204,50.8993 C108.511,48.7833 107.659,46.7173 106.639,44.7373 C106.405,44.2823 106.176,43.8253 105.923,43.3793 C105.862,43.2733 105.803,43.1673 105.742,43.0623 C105.648,42.8983 105.759,42.8803 105.88,42.7613 C106.103,42.5413 106.324,42.3223 106.547,42.1023 C107.305,41.3523 108.064,40.6023 108.822,39.8533 C109.596,39.0873 110.372,38.3203 111.147,37.5543 C112.291,38.7613 113.434,39.9683 114.578,41.1753 C115.324,41.9633 116.718,42.8073 117.397,41.4693 C117.73,40.8133 117.717,40.0483 117.752,39.3293 C117.858,37.2173 117.965,35.1043 118.069,32.9923 C118.113,32.1133 118.158,31.2343 118.202,30.3553 C118.244,29.5223 118.232,28.7113 117.844,27.9433 C117.171,26.6053 115.712,25.9363 114.255,26.0973 Z M37.3753,65.9983 C35.3773,57.7163 36.8503,48.6903 41.3983,41.4873 C45.8843,34.3793 53.1263,29.2873 61.4643,27.9153 C70.0403,26.5033 78.9493,29.2353 85.4953,34.8923 C88.1853,37.2163 90.5003,40.0243 92.2193,43.1373 C92.7113,44.0303 93.1583,44.9443 93.5593,45.8823 C93.7673,46.3693 93.9613,46.8613 94.1443,47.3573 C94.2243,47.5743 94.4483,47.9293 94.2833,48.1073 C94.0673,48.3413 93.8493,48.5753 93.6343,48.8093 C92.1503,50.4123 90.6623,52.0133 89.1763,53.6153 C86.0723,56.9603 82.9573,60.2993 79.8443,63.6373 C78.2493,65.3463 76.6553,67.0553 75.0613,68.7643 C74.4963,69.3683 73.9323,69.9743 73.3673,70.5773 C72.9723,70.9963 72.1263,71.8933 71.4613,71.5943 C70.6023,71.2073 70.4923,69.6553 70.3353,68.8313 C69.9103,66.6203 69.4983,64.4073 69.0863,62.1933 C68.2513,57.7013 67.5053,53.1853 66.5863,48.7103 C66.1903,46.7803 65.0863,44.7363 62.9133,44.5073 C61.4503,44.3533 60.0763,45.1053 59.0563,46.0963 C58.0113,47.1103 57.0373,48.2013 56.0363,49.2573 C54.4253,50.9583 52.8123,52.6593 51.2013,54.3603 C46.8033,59.0023 42.4053,63.6443 38.0083,68.2853 C37.7693,67.5303 37.5583,66.7683 37.3753,65.9983 C37.5583,66.7673 35.9603,60.1283 37.3753,65.9983 Z M81.5453,85.1933 C74.2103,89.8473 64.8513,90.9183 56.6683,87.9573 C54.2943,87.0983 52.0543,85.9383 49.9633,84.5253 C48.9703,83.8553 47.9913,83.1143 47.1083,82.3033 C46.9363,82.1453 46.7633,81.9863 46.5883,81.8283 L46.3183,81.5843 L46.3183,81.5843 C46.2983,81.5663 46.1543,81.4273 46.2353,81.5173 C44.4073,79.6673 42.7443,77.7393 41.3463,75.5323 C40.7523,74.5963 40.2153,73.6223 39.7323,72.6253 C39.4993,72.1463 39.2783,71.6603 39.0703,71.1693 C38.9843,70.9663 38.7453,70.6253 38.9083,70.4593 L39.5543,69.8013 L39.5543,69.8013 L43.8263,65.4473 L43.8263,65.4473 C46.9193,62.2973 50.0103,59.1473 53.1013,55.9983 C54.7433,54.3263 56.3823,52.6533 58.0243,50.9813 C59.0063,49.9813 59.9573,48.9343 60.9913,47.9873 C61.4303,47.5973 62.1673,47.0423 62.7843,47.2863 C63.6203,47.6093 63.7823,48.9083 63.9153,49.6613 C64.3153,51.9323 64.7063,54.2063 65.1033,56.4773 C65.8673,60.8603 66.6333,65.2423 67.3713,69.6293 C67.5353,70.6063 67.6853,71.6533 68.1963,72.5213 C69.1033,74.0643 70.5833,75.0803 72.4453,74.7623 C74.0363,74.4913 75.1943,73.4003 76.2893,72.3023 C77.9393,70.6463 79.5903,68.9903 81.2403,67.3353 C86.0243,62.5343 90.8153,57.7393 95.6153,52.9523 C96.2463,56.9643 96.1603,61.0503 95.3073,65.0233 C95.7707912,62.8650895 95.6531667,63.4532655 95.4814701,64.2719261 L95.4453479,64.4437676 C95.2930651,65.1665997 95.1276101,65.9317728 95.2866376,65.1274549 L95.3073,65.0233 C93.6873,73.1823 88.5713,80.7363 81.5453,85.1933 Z M70.2983,31.4683 C73.1803,32.0513 75.9693,33.1363 78.4553,34.7113 C80.7343,36.1543 82.6763,37.9343 84.4513,39.9543 C83.3593,40.8073 82.2703,41.6603 81.1793,42.5133 C80.0213,41.0053 78.7743,39.6613 77.3243,38.4293 C75.6643,37.0183 73.6783,35.9183 71.6503,35.1353 C67.4003,33.4923 62.7553,33.3113 58.3343,34.3253 C55.6773,34.9343 53.1153,36.0643 50.8153,37.5213 C49.7353,38.2063 48.7293,38.9753 47.7423,39.7863 C47.6573,39.8563 47.6493,39.9093 47.5793,39.8283 C47.4823,39.7183 47.3853,39.6083 47.2883,39.4983 L46.7183,38.8503 L46.7183,38.8503 C49.6683,36.0613 53.0013,33.8263 56.8463,32.4563 C61.1303,30.9303 65.8393,30.5663 70.2983,31.4683 Z" id="Shape" fill="#1C7EFF"></path>
                <path d="M145.494,61.3443 C145.494,66.1203 146.511,69.7423 148.546,72.2103 C150.579,74.6793 153.534,75.9133 157.409,75.9133 C161.316,75.9133 164.267,74.6833 166.261,72.2223 C168.255,69.7623 169.252,66.1373 169.252,61.3443 C169.252,56.6013 168.259,53.0033 166.273,50.5513 C164.288,48.0993 161.349,46.8733 157.458,46.8733 C153.551,46.8733 150.58,48.1073 148.547,50.5763 C146.511,53.0433 145.494,56.6323 145.494,61.3443 Z M173.594,61.3443 C173.594,66.9883 172.166,71.4263 169.312,74.6583 C166.459,77.8903 162.491,79.5063 157.41,79.5063 C152.216,79.5063 148.209,77.9183 145.387,74.7433 C142.564,71.5673 141.154,67.0843 141.154,61.2963 C141.154,55.5553 142.568,51.1063 145.399,47.9453 C148.229,44.7863 152.25,43.2053 157.459,43.2053 C162.525,43.2053 166.48,44.8133 169.326,48.0293 C172.17,51.2473 173.594,55.6853 173.594,61.3443 Z" id="Shape" fill="#1C7EFF"></path>
                <path d="M195.78,76.1533 C198.513,76.1533 200.495,75.4103 201.725,73.9233 C202.954,72.4353 203.57,70.0363 203.57,66.7233 L203.57,65.8793 C203.57,62.1333 202.947,59.4603 201.701,57.8593 C200.455,56.2593 198.466,55.4593 195.731,55.4593 C193.382,55.4593 191.586,56.3733 190.34,58.1983 C189.094,60.0233 188.471,62.5993 188.471,65.9283 C188.471,69.3043 189.089,71.8533 190.328,73.5743 C191.567,75.2943 193.382,76.1533 195.78,76.1533 Z M203.787,75.4783 L203.569,75.4783 C201.72,78.1653 198.954,79.5063 195.272,79.5063 C191.814,79.5063 189.126,78.3243 187.204,75.9603 C185.283,73.5963 184.322,70.2353 184.322,65.8783 C184.322,61.5213 185.287,58.1353 187.216,55.7243 C189.146,53.3123 191.831,52.1063 195.273,52.1063 C198.858,52.1063 201.608,53.4093 203.521,56.0133 L203.835,56.0133 L203.666,54.1073 L203.569,52.2513 L203.569,41.4943 L207.573,41.4943 L207.573,79.0243 L204.317,79.0243 L203.787,75.4783 Z" id="Shape" fill="#1C7EFF"></path>
                <path d="M230.989,76.1533 C233.723,76.1533 235.705,75.4103 236.934,73.9233 C238.164,72.4353 238.781,70.0363 238.781,66.7233 L238.781,65.8793 C238.781,62.1333 238.156,59.4603 236.911,57.8593 C235.664,56.2593 233.675,55.4593 230.941,55.4593 C228.593,55.4593 226.796,56.3733 225.549,58.1983 C224.305,60.0233 223.681,62.5993 223.681,65.9283 C223.681,69.3043 224.3,71.8533 225.538,73.5743 C226.776,75.2943 228.593,76.1533 230.989,76.1533 Z M238.997,75.4783 L238.78,75.4783 C236.93,78.1653 234.164,79.5063 230.483,79.5063 C227.024,79.5063 224.337,78.3243 222.414,75.9603 C220.493,73.5963 219.533,70.2353 219.533,65.8783 C219.533,61.5213 220.498,58.1353 222.427,55.7243 C224.358,53.3123 227.042,52.1063 230.484,52.1063 C234.068,52.1063 236.818,53.4093 238.732,56.0133 L239.045,56.0133 L238.877,54.1073 L238.78,52.2513 L238.78,41.4943 L242.784,41.4943 L242.784,79.0243 L239.526,79.0243 L238.997,75.4783 Z" id="Shape" fill="#1C7EFF"></path>
                <polygon id="Path" fill="#1C7EFF" points="273.121 79.0243 253.947 79.0243 253.947 76.2983 268.37 55.7003 254.839 55.7003 254.839 52.5883 272.76 52.5883 272.76 55.7003 258.53 75.9133 273.121 75.9133"></polygon>
            </g>
        </g>
    </g>
</svg>