<svg width="298" height="122" viewBox="0 0 298 122" fill="none" xmlns="http://www.w3.org/2000/svg">
<rect width="297.121" height="121.002" fill="black"/>
<path d="M46.7183 38.8503C49.6683 36.0613 53.0013 33.8263 56.8463 32.4563C61.1303 30.9303 65.8393 30.5663 70.2983 31.4683C73.1803 32.0513 75.9693 33.1363 78.4553 34.7113C80.7343 36.1543 82.6763 37.9343 84.4513 39.9543C83.3593 40.8073 82.2703 41.6603 81.1793 42.5133C80.0213 41.0053 78.7743 39.6613 77.3243 38.4293C75.6643 37.0183 73.6783 35.9183 71.6503 35.1353C67.4003 33.4923 62.7553 33.3113 58.3343 34.3253C55.6773 34.9343 53.1153 36.0643 50.8153 37.5213C49.7353 38.2063 48.7293 38.9753 47.7423 39.7863C47.6573 39.8563 47.6493 39.9093 47.5793 39.8283C47.4823 39.7183 47.3853 39.6083 47.2883 39.4983C47.0983 39.2823 46.9083 39.0663 46.7183 38.8503Z" fill="white"/>
<path d="M114.255 26.0973C112.588 26.2833 110.922 26.4683 109.255 26.6533C108.294 26.7593 107.333 26.8663 106.373 26.9733C105.538 27.0663 104.601 27.1353 103.996 27.7923C103.126 28.7403 103.956 29.9593 104.664 30.7053C105.369 31.4503 106.074 32.1943 106.78 32.9403C107.022 33.1953 107.262 33.4503 107.506 33.7053C107.563 33.7663 106.933 34.3843 106.859 34.4643C105.623 35.8083 104.387 37.1523 103.152 38.4963C103.091 38.5613 103.032 38.6263 102.972 38.6923C101.753 36.9933 100.436 35.3583 99.0183 33.8233C98.3863 33.1403 97.7433 32.4733 97.0873 31.8143C97.0333 31.7613 96.7353 31.3883 96.6703 31.4493C96.4953 31.6123 96.3193 31.7763 96.1443 31.9383C95.9873 32.0853 95.8293 32.2323 95.6703 32.3803C95.6043 32.4423 96.0333 32.8553 96.0873 32.9173C96.6963 33.6463 97.3163 34.3643 97.9133 35.1053C98.5803 35.9323 99.2083 36.7953 99.8123 37.6683C100.111 38.1033 100.406 38.5433 100.694 38.9863C100.846 39.2213 100.997 39.4573 101.145 39.6943C101.219 39.8123 101.291 39.9303 101.362 40.0503C101.499 40.2793 101.515 40.2763 101.335 40.4713C100.568 41.3053 99.8043 42.1423 99.0343 42.9753C95.4933 36.3233 89.9893 30.6823 83.1813 27.3723C75.1443 23.4633 65.7693 22.9643 57.3133 25.8143C48.8613 28.6643 41.6973 34.7473 37.3743 42.5273C33.0583 50.2893 31.7243 59.6403 33.5513 68.3193C33.7903 69.4593 34.0863 70.5863 34.4343 71.6983C34.4903 71.8803 34.5593 71.9233 34.4203 72.0703C34.3213 72.1743 34.2243 72.2773 34.1253 72.3813C33.9343 72.5833 33.7413 72.7873 33.5493 72.9893C33.1493 73.4123 32.7483 73.8353 32.3473 74.2583C31.0273 75.6523 29.7063 77.0463 28.3853 78.4393C26.9763 79.9263 25.5683 81.4143 24.1583 82.9013C24.1373 82.9233 23.9793 83.0633 24.0023 83.0863C24.3453 83.4173 24.6883 83.7473 25.0323 84.0783C25.1463 84.1883 25.2333 84.3963 25.3613 84.2663C25.5073 84.1183 25.6543 83.9693 25.7993 83.8203C27.6033 81.9813 29.4083 80.1433 31.2133 78.3033C32.5713 76.9193 33.9303 75.5343 35.2883 74.1503C37.4953 79.8223 41.0703 84.8163 45.6833 88.7683C52.6223 94.7123 61.9633 97.6773 71.0623 96.8723C75.5493 96.4753 79.9363 95.1973 83.9433 93.1433C87.3063 91.4193 90.2613 89.1523 92.9763 86.5393C95.3653 84.2383 97.3803 81.4493 98.9793 78.5573C101.12 74.6833 102.556 70.3803 103.148 65.9933C103.66 62.1803 103.6 58.3083 102.959 54.5153C102.653 52.7163 102.222 50.9383 101.663 49.2013C101.533 48.7943 101.394 48.3903 101.25 47.9883C101.18 47.7903 101.018 47.5783 101.177 47.4203C101.371 47.2263 101.566 47.0333 101.759 46.8393C102.461 46.1403 103.166 45.4443 103.87 44.7483C105.808 48.7783 106.968 53.2773 107.377 57.7193C107.803 62.3223 107.385 66.9993 106.158 71.4563C105.418 74.1433 104.437 76.7773 103.191 79.2723C102.079 81.5013 100.811 83.6143 99.4443 85.6953C100.997 86.6773 102.549 87.6603 104.102 88.6423C106.068 85.1623 107.789 81.5953 109.03 77.7883C110.424 73.5113 111.264 68.9893 111.287 64.4823C111.31 59.8593 110.645 55.2953 109.204 50.8993C108.511 48.7833 107.659 46.7173 106.639 44.7373C106.405 44.2823 106.176 43.8253 105.923 43.3793C105.862 43.2733 105.803 43.1673 105.742 43.0623C105.648 42.8983 105.759 42.8803 105.88 42.7613C106.103 42.5413 106.324 42.3223 106.547 42.1023C107.305 41.3523 108.064 40.6023 108.822 39.8533C109.596 39.0873 110.372 38.3203 111.147 37.5543C112.291 38.7613 113.434 39.9683 114.578 41.1753C115.324 41.9633 116.718 42.8073 117.397 41.4693C117.73 40.8133 117.717 40.0483 117.752 39.3293C117.858 37.2173 117.965 35.1043 118.069 32.9923C118.113 32.1133 118.158 31.2343 118.202 30.3553C118.244 29.5223 118.232 28.7113 117.844 27.9433C117.171 26.6053 115.712 25.9363 114.255 26.0973ZM37.3753 65.9983C35.3773 57.7163 36.8503 48.6903 41.3983 41.4873C45.8843 34.3793 53.1263 29.2873 61.4643 27.9153C70.0403 26.5033 78.9493 29.2353 85.4953 34.8923C88.1853 37.2163 90.5003 40.0243 92.2193 43.1373C92.7113 44.0303 93.1583 44.9443 93.5593 45.8823C93.7673 46.3693 93.9613 46.8613 94.1443 47.3573C94.2243 47.5743 94.4483 47.9293 94.2833 48.1073C94.0673 48.3413 93.8493 48.5753 93.6343 48.8093C92.1503 50.4123 90.6623 52.0133 89.1763 53.6153C86.0723 56.9603 82.9573 60.2993 79.8443 63.6373C78.2493 65.3463 76.6553 67.0553 75.0613 68.7643C74.4963 69.3683 73.9323 69.9743 73.3673 70.5773C72.9723 70.9963 72.1263 71.8933 71.4613 71.5943C70.6023 71.2073 70.4923 69.6553 70.3353 68.8313C69.9103 66.6203 69.4983 64.4073 69.0863 62.1933C68.2513 57.7013 67.5053 53.1853 66.5863 48.7103C66.1903 46.7803 65.0863 44.7363 62.9133 44.5073C61.4503 44.3533 60.0763 45.1053 59.0563 46.0963C58.0113 47.1103 57.0373 48.2013 56.0363 49.2573C54.4253 50.9583 52.8123 52.6593 51.2013 54.3603C46.8033 59.0023 42.4053 63.6443 38.0083 68.2853C37.7693 67.5303 37.5583 66.7683 37.3753 65.9983C37.5583 66.7673 35.9603 60.1283 37.3753 65.9983ZM70.5183 69.7953C70.5273 69.8373 70.5223 69.8133 70.5183 69.7953V69.7953ZM95.3073 65.0233C93.6873 73.1823 88.5713 80.7363 81.5453 85.1933C74.2103 89.8473 64.8513 90.9183 56.6683 87.9573C54.2943 87.0983 52.0543 85.9383 49.9633 84.5253C48.9703 83.8553 47.9913 83.1143 47.1083 82.3033C46.9363 82.1453 46.7633 81.9863 46.5883 81.8283C46.4983 81.7473 46.4083 81.6653 46.3183 81.5843C46.2983 81.5663 46.1543 81.4273 46.2353 81.5173C44.4073 79.6673 42.7443 77.7393 41.3463 75.5323C40.7523 74.5963 40.2153 73.6223 39.7323 72.6253C39.4993 72.1463 39.2783 71.6603 39.0703 71.1693C38.9843 70.9663 38.7453 70.6253 38.9083 70.4593C39.1243 70.2403 39.3383 70.0213 39.5543 69.8013C40.9783 68.3503 42.4023 66.8993 43.8263 65.4473C46.9193 62.2973 50.0103 59.1473 53.1013 55.9983C54.7433 54.3263 56.3823 52.6533 58.0243 50.9813C59.0063 49.9813 59.9573 48.9343 60.9913 47.9873C61.4303 47.5973 62.1673 47.0423 62.7843 47.2863C63.6203 47.6093 63.7823 48.9083 63.9153 49.6613C64.3153 51.9323 64.7063 54.2063 65.1033 56.4773C65.8673 60.8603 66.6333 65.2423 67.3713 69.6293C67.5353 70.6063 67.6853 71.6533 68.1963 72.5213C69.1033 74.0643 70.5833 75.0803 72.4453 74.7623C74.0363 74.4913 75.1943 73.4003 76.2893 72.3023C77.9393 70.6463 79.5903 68.9903 81.2403 67.3353C86.0243 62.5343 90.8153 57.7393 95.6153 52.9523C96.2463 56.9643 96.1603 61.0503 95.3073 65.0233C96.2183 60.7813 94.8843 67.1493 95.3073 65.0233Z" fill="white"/>
<path d="M145.494 61.3443C145.494 66.1203 146.511 69.7423 148.546 72.2103C150.579 74.6793 153.534 75.9133 157.409 75.9133C161.316 75.9133 164.267 74.6833 166.261 72.2223C168.255 69.7623 169.252 66.1373 169.252 61.3443C169.252 56.6013 168.259 53.0033 166.273 50.5513C164.288 48.0993 161.349 46.8733 157.458 46.8733C153.551 46.8733 150.58 48.1073 148.547 50.5763C146.511 53.0433 145.494 56.6323 145.494 61.3443ZM173.594 61.3443C173.594 66.9883 172.166 71.4263 169.312 74.6583C166.459 77.8903 162.491 79.5063 157.41 79.5063C152.216 79.5063 148.209 77.9183 145.387 74.7433C142.564 71.5673 141.154 67.0843 141.154 61.2963C141.154 55.5553 142.568 51.1063 145.399 47.9453C148.229 44.7863 152.25 43.2053 157.459 43.2053C162.525 43.2053 166.48 44.8133 169.326 48.0293C172.17 51.2473 173.594 55.6853 173.594 61.3443Z" fill="white"/>
<path d="M195.78 76.1533C198.513 76.1533 200.495 75.4103 201.725 73.9233C202.954 72.4353 203.57 70.0363 203.57 66.7233V65.8793C203.57 62.1333 202.947 59.4603 201.701 57.8593C200.455 56.2593 198.466 55.4593 195.731 55.4593C193.382 55.4593 191.586 56.3733 190.34 58.1983C189.094 60.0233 188.471 62.5993 188.471 65.9283C188.471 69.3043 189.089 71.8533 190.328 73.5743C191.567 75.2943 193.382 76.1533 195.78 76.1533ZM203.787 75.4783H203.569C201.72 78.1653 198.954 79.5063 195.272 79.5063C191.814 79.5063 189.126 78.3243 187.204 75.9603C185.283 73.5963 184.322 70.2353 184.322 65.8783C184.322 61.5213 185.287 58.1353 187.216 55.7243C189.146 53.3123 191.831 52.1063 195.273 52.1063C198.858 52.1063 201.608 53.4093 203.521 56.0133H203.835L203.666 54.1073L203.569 52.2513V41.4943H207.573V79.0243H204.317L203.787 75.4783Z" fill="white"/>
<path d="M230.989 76.1533C233.723 76.1533 235.705 75.4103 236.934 73.9233C238.164 72.4353 238.781 70.0363 238.781 66.7233V65.8793C238.781 62.1333 238.156 59.4603 236.911 57.8593C235.664 56.2593 233.675 55.4593 230.941 55.4593C228.593 55.4593 226.796 56.3733 225.549 58.1983C224.305 60.0233 223.681 62.5993 223.681 65.9283C223.681 69.3043 224.3 71.8533 225.538 73.5743C226.776 75.2943 228.593 76.1533 230.989 76.1533ZM238.997 75.4783H238.78C236.93 78.1653 234.164 79.5063 230.483 79.5063C227.024 79.5063 224.337 78.3243 222.414 75.9603C220.493 73.5963 219.533 70.2353 219.533 65.8783C219.533 61.5213 220.498 58.1353 222.427 55.7243C224.358 53.3123 227.042 52.1063 230.484 52.1063C234.068 52.1063 236.818 53.4093 238.732 56.0133H239.045L238.877 54.1073L238.78 52.2513V41.4943H242.784V79.0243H239.526L238.997 75.4783Z" fill="white"/>
<path d="M273.121 79.0243H253.947V76.2983L268.37 55.7003H254.839V52.5883H272.76V55.7003L258.53 75.9133H273.121V79.0243Z" fill="white"/>
</svg>
