<svg width="298" height="122" viewBox="0 0 298 122" fill="none" xmlns="http://www.w3.org/2000/svg">
<path d="M46.7183 38.8526C49.6683 36.0636 53.0013 33.8286 56.8463 32.4586C61.1303 30.9326 65.8393 30.5686 70.2983 31.4706C73.1803 32.0536 75.9693 33.1386 78.4553 34.7136C80.7343 36.1566 82.6763 37.9366 84.4513 39.9566C83.3593 40.8096 82.2703 41.6626 81.1793 42.5156C80.0213 41.0076 78.7743 39.6636 77.3243 38.4316C75.6643 37.0206 73.6783 35.9206 71.6503 35.1376C67.4003 33.4946 62.7553 33.3136 58.3343 34.3276C55.6773 34.9366 53.1153 36.0666 50.8153 37.5236C49.7353 38.2086 48.7293 38.9776 47.7423 39.7886C47.6573 39.8586 47.6493 39.9116 47.5793 39.8306C47.4823 39.7206 47.3853 39.6106 47.2883 39.5006C47.0983 39.2846 46.9083 39.0686 46.7183 38.8526Z" fill="#0A0A0A"/>
<path d="M114.255 26.0996C112.588 26.2856 110.922 26.4706 109.255 26.6556C108.294 26.7616 107.333 26.8686 106.373 26.9756C105.538 27.0686 104.601 27.1376 103.996 27.7946C103.126 28.7426 103.956 29.9616 104.664 30.7076C105.369 31.4526 106.074 32.1966 106.78 32.9426C107.022 33.1976 107.262 33.4526 107.506 33.7076C107.563 33.7686 106.933 34.3866 106.859 34.4666C105.623 35.8106 104.387 37.1546 103.152 38.4986C103.091 38.5636 103.032 38.6286 102.972 38.6946C101.753 36.9956 100.436 35.3606 99.0183 33.8256C98.3863 33.1426 97.7433 32.4756 97.0873 31.8166C97.0333 31.7636 96.7353 31.3906 96.6703 31.4516C96.4953 31.6146 96.3193 31.7786 96.1443 31.9406C95.9873 32.0876 95.8293 32.2346 95.6703 32.3826C95.6043 32.4446 96.0333 32.8576 96.0873 32.9196C96.6963 33.6486 97.3163 34.3666 97.9133 35.1076C98.5803 35.9346 99.2083 36.7976 99.8123 37.6706C100.111 38.1056 100.406 38.5456 100.694 38.9886C100.846 39.2236 100.997 39.4596 101.145 39.6966C101.219 39.8146 101.291 39.9326 101.362 40.0526C101.499 40.2816 101.515 40.2786 101.335 40.4736C100.568 41.3076 99.8043 42.1446 99.0343 42.9776C95.4933 36.3256 89.9893 30.6846 83.1813 27.3746C75.1443 23.4656 65.7693 22.9666 57.3133 25.8166C48.8613 28.6666 41.6973 34.7496 37.3743 42.5296C33.0583 50.2916 31.7243 59.6426 33.5513 68.3216C33.7903 69.4616 34.0863 70.5886 34.4343 71.7006C34.4903 71.8826 34.5593 71.9256 34.4203 72.0726C34.3213 72.1766 34.2243 72.2796 34.1253 72.3836C33.9343 72.5856 33.7413 72.7896 33.5493 72.9916C33.1493 73.4146 32.7483 73.8376 32.3473 74.2606C31.0273 75.6546 29.7063 77.0486 28.3853 78.4416C26.9763 79.9286 25.5683 81.4166 24.1583 82.9036C24.1373 82.9256 23.9793 83.0656 24.0023 83.0886C24.3453 83.4196 24.6883 83.7496 25.0323 84.0806C25.1463 84.1906 25.2333 84.3986 25.3613 84.2686C25.5073 84.1206 25.6543 83.9716 25.7993 83.8226C27.6033 81.9836 29.4083 80.1456 31.2133 78.3056C32.5713 76.9216 33.9303 75.5366 35.2883 74.1526C37.4953 79.8246 41.0703 84.8186 45.6833 88.7706C52.6223 94.7146 61.9633 97.6796 71.0623 96.8746C75.5493 96.4776 79.9363 95.1996 83.9433 93.1456C87.3063 91.4216 90.2613 89.1546 92.9763 86.5416C95.3653 84.2406 97.3803 81.4516 98.9793 78.5596C101.12 74.6856 102.556 70.3826 103.148 65.9956C103.66 62.1826 103.6 58.3106 102.959 54.5176C102.653 52.7186 102.222 50.9406 101.663 49.2036C101.533 48.7966 101.394 48.3926 101.25 47.9906C101.18 47.7926 101.018 47.5806 101.177 47.4226C101.371 47.2286 101.566 47.0356 101.759 46.8416C102.461 46.1426 103.166 45.4466 103.87 44.7506C105.808 48.7806 106.968 53.2796 107.377 57.7216C107.803 62.3246 107.385 67.0016 106.158 71.4586C105.418 74.1456 104.437 76.7796 103.191 79.2746C102.079 81.5036 100.811 83.6166 99.4443 85.6976C100.997 86.6796 102.549 87.6626 104.102 88.6446C106.068 85.1646 107.789 81.5976 109.03 77.7906C110.424 73.5136 111.264 68.9916 111.287 64.4846C111.31 59.8616 110.645 55.2976 109.204 50.9016C108.511 48.7856 107.659 46.7196 106.639 44.7396C106.405 44.2846 106.176 43.8276 105.923 43.3816C105.862 43.2756 105.803 43.1696 105.742 43.0646C105.648 42.9006 105.759 42.8826 105.88 42.7636C106.103 42.5436 106.324 42.3246 106.547 42.1046C107.305 41.3546 108.064 40.6046 108.822 39.8556C109.596 39.0896 110.372 38.3226 111.147 37.5566C112.291 38.7636 113.434 39.9706 114.578 41.1776C115.324 41.9656 116.718 42.8096 117.397 41.4716C117.73 40.8156 117.717 40.0506 117.752 39.3316C117.858 37.2196 117.965 35.1066 118.069 32.9946C118.113 32.1156 118.158 31.2366 118.202 30.3576C118.244 29.5246 118.232 28.7136 117.844 27.9456C117.171 26.6076 115.712 25.9386 114.255 26.0996ZM37.3753 66.0006C35.3773 57.7186 36.8503 48.6926 41.3983 41.4896C45.8843 34.3816 53.1263 29.2896 61.4643 27.9176C70.0403 26.5056 78.9493 29.2376 85.4953 34.8946C88.1853 37.2186 90.5003 40.0266 92.2193 43.1396C92.7113 44.0326 93.1583 44.9466 93.5593 45.8846C93.7673 46.3716 93.9613 46.8636 94.1443 47.3596C94.2243 47.5766 94.4483 47.9316 94.2833 48.1096C94.0673 48.3436 93.8493 48.5776 93.6343 48.8116C92.1503 50.4146 90.6623 52.0156 89.1763 53.6176C86.0723 56.9626 82.9573 60.3016 79.8443 63.6396C78.2493 65.3486 76.6553 67.0576 75.0613 68.7666C74.4963 69.3706 73.9323 69.9766 73.3673 70.5796C72.9723 70.9986 72.1263 71.8956 71.4613 71.5966C70.6023 71.2096 70.4923 69.6576 70.3353 68.8336C69.9103 66.6226 69.4983 64.4096 69.0863 62.1956C68.2513 57.7036 67.5053 53.1876 66.5863 48.7126C66.1903 46.7826 65.0863 44.7386 62.9133 44.5096C61.4503 44.3556 60.0763 45.1076 59.0563 46.0986C58.0113 47.1126 57.0373 48.2036 56.0363 49.2596C54.4253 50.9606 52.8123 52.6616 51.2013 54.3626C46.8033 59.0046 42.4053 63.6466 38.0083 68.2876C37.7693 67.5326 37.5583 66.7706 37.3753 66.0006C37.5583 66.7696 35.9603 60.1306 37.3753 66.0006ZM70.5183 69.7976C70.5273 69.8396 70.5223 69.8156 70.5183 69.7976V69.7976ZM95.3073 65.0256C93.6873 73.1846 88.5713 80.7386 81.5453 85.1956C74.2103 89.8496 64.8513 90.9206 56.6683 87.9596C54.2943 87.1006 52.0543 85.9406 49.9633 84.5276C48.9703 83.8576 47.9913 83.1166 47.1083 82.3056C46.9363 82.1476 46.7633 81.9886 46.5883 81.8306C46.4983 81.7496 46.4083 81.6676 46.3183 81.5866C46.2983 81.5686 46.1543 81.4296 46.2353 81.5196C44.4073 79.6696 42.7443 77.7416 41.3463 75.5346C40.7523 74.5986 40.2153 73.6246 39.7323 72.6276C39.4993 72.1486 39.2783 71.6626 39.0703 71.1716C38.9843 70.9686 38.7453 70.6276 38.9083 70.4616C39.1243 70.2426 39.3383 70.0236 39.5543 69.8036C40.9783 68.3526 42.4023 66.9016 43.8263 65.4496C46.9193 62.2996 50.0103 59.1496 53.1013 56.0006C54.7433 54.3286 56.3823 52.6556 58.0243 50.9836C59.0063 49.9836 59.9573 48.9366 60.9913 47.9896C61.4303 47.5996 62.1673 47.0446 62.7843 47.2886C63.6203 47.6116 63.7823 48.9106 63.9153 49.6636C64.3153 51.9346 64.7063 54.2086 65.1033 56.4796C65.8673 60.8626 66.6333 65.2446 67.3713 69.6316C67.5353 70.6086 67.6853 71.6556 68.1963 72.5236C69.1033 74.0666 70.5833 75.0826 72.4453 74.7646C74.0363 74.4936 75.1943 73.4026 76.2893 72.3046C77.9393 70.6486 79.5903 68.9926 81.2403 67.3376C86.0243 62.5366 90.8153 57.7416 95.6153 52.9546C96.2463 56.9666 96.1603 61.0526 95.3073 65.0256C96.2183 60.7836 94.8843 67.1516 95.3073 65.0256Z" fill="#0A0A0A"/>
<path d="M145.494 61.3466C145.494 66.1226 146.511 69.7446 148.546 72.2126C150.579 74.6816 153.534 75.9156 157.409 75.9156C161.316 75.9156 164.267 74.6856 166.261 72.2246C168.255 69.7646 169.252 66.1396 169.252 61.3466C169.252 56.6036 168.259 53.0056 166.273 50.5536C164.288 48.1016 161.349 46.8756 157.458 46.8756C153.551 46.8756 150.58 48.1096 148.547 50.5786C146.511 53.0456 145.494 56.6346 145.494 61.3466ZM173.594 61.3466C173.594 66.9906 172.166 71.4286 169.312 74.6606C166.459 77.8926 162.491 79.5086 157.41 79.5086C152.216 79.5086 148.209 77.9206 145.387 74.7456C142.564 71.5696 141.154 67.0866 141.154 61.2986C141.154 55.5576 142.568 51.1086 145.399 47.9476C148.229 44.7886 152.25 43.2076 157.459 43.2076C162.525 43.2076 166.48 44.8156 169.326 48.0316C172.17 51.2496 173.594 55.6876 173.594 61.3466Z" fill="#0A0A0A"/>
<path d="M195.78 76.1556C198.513 76.1556 200.495 75.4126 201.725 73.9256C202.954 72.4376 203.57 70.0386 203.57 66.7256V65.8816C203.57 62.1356 202.947 59.4626 201.701 57.8616C200.455 56.2616 198.466 55.4616 195.731 55.4616C193.382 55.4616 191.586 56.3756 190.34 58.2006C189.094 60.0256 188.471 62.6016 188.471 65.9306C188.471 69.3066 189.089 71.8556 190.328 73.5766C191.567 75.2966 193.382 76.1556 195.78 76.1556ZM203.787 75.4806H203.569C201.72 78.1676 198.954 79.5086 195.272 79.5086C191.814 79.5086 189.126 78.3266 187.204 75.9626C185.283 73.5986 184.322 70.2376 184.322 65.8806C184.322 61.5236 185.287 58.1376 187.216 55.7266C189.146 53.3146 191.831 52.1086 195.273 52.1086C198.858 52.1086 201.608 53.4116 203.521 56.0156H203.835L203.666 54.1096L203.569 52.2536V41.4966H207.573V79.0266H204.317L203.787 75.4806Z" fill="#0A0A0A"/>
<path d="M230.989 76.1556C233.723 76.1556 235.705 75.4126 236.934 73.9256C238.164 72.4376 238.781 70.0386 238.781 66.7256V65.8816C238.781 62.1356 238.156 59.4626 236.911 57.8616C235.664 56.2616 233.675 55.4616 230.941 55.4616C228.593 55.4616 226.796 56.3756 225.549 58.2006C224.305 60.0256 223.681 62.6016 223.681 65.9306C223.681 69.3066 224.3 71.8556 225.538 73.5766C226.776 75.2966 228.593 76.1556 230.989 76.1556ZM238.997 75.4806H238.78C236.93 78.1676 234.164 79.5086 230.483 79.5086C227.024 79.5086 224.337 78.3266 222.414 75.9626C220.493 73.5986 219.533 70.2376 219.533 65.8806C219.533 61.5236 220.498 58.1376 222.427 55.7266C224.358 53.3146 227.042 52.1086 230.484 52.1086C234.068 52.1086 236.818 53.4116 238.732 56.0156H239.045L238.877 54.1096L238.78 52.2536V41.4966H242.784V79.0266H239.526L238.997 75.4806Z" fill="#0A0A0A"/>
<path d="M273.121 79.0266H253.947V76.3006L268.37 55.7026H254.839V52.5906H272.76V55.7026L258.53 75.9156H273.121V79.0266Z" fill="#0A0A0A"/>
</svg>
