<svg width="298" height="122" viewBox="0 0 298 122" fill="none" xmlns="http://www.w3.org/2000/svg">
<path d="M46.7183 38.8548C49.6683 36.0658 53.0013 33.8308 56.8463 32.4608C61.1303 30.9348 65.8393 30.5708 70.2983 31.4728C73.1803 32.0558 75.9693 33.1408 78.4553 34.7158C80.7343 36.1588 82.6763 37.9388 84.4513 39.9588C83.3593 40.8118 82.2703 41.6648 81.1793 42.5178C80.0213 41.0098 78.7743 39.6658 77.3243 38.4338C75.6643 37.0228 73.6783 35.9228 71.6503 35.1398C67.4003 33.4968 62.7553 33.3158 58.3343 34.3298C55.6773 34.9388 53.1153 36.0688 50.8153 37.5258C49.7353 38.2108 48.7293 38.9798 47.7423 39.7908C47.6573 39.8608 47.6493 39.9138 47.5793 39.8328C47.4823 39.7228 47.3853 39.6128 47.2883 39.5028C47.0983 39.2868 46.9083 39.0708 46.7183 38.8548Z" fill="white"/>
<path d="M114.255 26.1018C112.588 26.2878 110.922 26.4728 109.255 26.6578C108.294 26.7638 107.333 26.8708 106.373 26.9778C105.538 27.0708 104.601 27.1398 103.996 27.7968C103.126 28.7448 103.956 29.9638 104.664 30.7098C105.369 31.4548 106.074 32.1988 106.78 32.9448C107.022 33.1998 107.262 33.4548 107.506 33.7098C107.563 33.7708 106.933 34.3888 106.859 34.4688C105.623 35.8128 104.387 37.1568 103.152 38.5008C103.091 38.5658 103.032 38.6308 102.972 38.6968C101.753 36.9978 100.436 35.3628 99.0183 33.8278C98.3863 33.1448 97.7433 32.4778 97.0873 31.8188C97.0333 31.7658 96.7353 31.3928 96.6703 31.4538C96.4953 31.6168 96.3193 31.7808 96.1443 31.9428C95.9873 32.0898 95.8293 32.2368 95.6703 32.3848C95.6043 32.4468 96.0333 32.8598 96.0873 32.9218C96.6963 33.6508 97.3163 34.3688 97.9133 35.1098C98.5803 35.9368 99.2083 36.7998 99.8123 37.6728C100.111 38.1078 100.406 38.5478 100.694 38.9908C100.846 39.2258 100.997 39.4618 101.145 39.6988C101.219 39.8168 101.291 39.9348 101.362 40.0548C101.499 40.2838 101.515 40.2808 101.335 40.4758C100.568 41.3098 99.8043 42.1468 99.0343 42.9798C95.4933 36.3278 89.9893 30.6868 83.1813 27.3768C75.1443 23.4678 65.7693 22.9688 57.3133 25.8188C48.8613 28.6688 41.6973 34.7518 37.3743 42.5318C33.0583 50.2938 31.7243 59.6448 33.5513 68.3238C33.7903 69.4638 34.0863 70.5908 34.4343 71.7028C34.4903 71.8848 34.5593 71.9278 34.4203 72.0748C34.3213 72.1788 34.2243 72.2818 34.1253 72.3858C33.9343 72.5878 33.7413 72.7918 33.5493 72.9938C33.1493 73.4168 32.7483 73.8398 32.3473 74.2628C31.0273 75.6568 29.7063 77.0508 28.3853 78.4438C26.9763 79.9308 25.5683 81.4188 24.1583 82.9058C24.1373 82.9278 23.9793 83.0678 24.0023 83.0908C24.3453 83.4218 24.6883 83.7518 25.0323 84.0828C25.1463 84.1928 25.2333 84.4008 25.3613 84.2708C25.5073 84.1228 25.6543 83.9738 25.7993 83.8248C27.6033 81.9858 29.4083 80.1478 31.2133 78.3078C32.5713 76.9238 33.9303 75.5388 35.2883 74.1548C37.4953 79.8268 41.0703 84.8208 45.6833 88.7728C52.6223 94.7168 61.9633 97.6818 71.0623 96.8768C75.5493 96.4798 79.9363 95.2018 83.9433 93.1478C87.3063 91.4238 90.2613 89.1568 92.9763 86.5438C95.3653 84.2428 97.3803 81.4538 98.9793 78.5618C101.12 74.6878 102.556 70.3848 103.148 65.9978C103.66 62.1848 103.6 58.3128 102.959 54.5198C102.653 52.7208 102.222 50.9428 101.663 49.2058C101.533 48.7988 101.394 48.3948 101.25 47.9928C101.18 47.7948 101.018 47.5828 101.177 47.4248C101.371 47.2308 101.566 47.0378 101.759 46.8438C102.461 46.1448 103.166 45.4488 103.87 44.7528C105.808 48.7828 106.968 53.2818 107.377 57.7238C107.803 62.3268 107.385 67.0038 106.158 71.4608C105.418 74.1478 104.437 76.7818 103.191 79.2768C102.079 81.5058 100.811 83.6188 99.4443 85.6998C100.997 86.6818 102.549 87.6648 104.102 88.6468C106.068 85.1668 107.789 81.5998 109.03 77.7928C110.424 73.5158 111.264 68.9938 111.287 64.4868C111.31 59.8638 110.645 55.2998 109.204 50.9038C108.511 48.7878 107.659 46.7218 106.639 44.7418C106.405 44.2868 106.176 43.8298 105.923 43.3838C105.862 43.2778 105.803 43.1718 105.742 43.0668C105.648 42.9028 105.759 42.8848 105.88 42.7658C106.103 42.5458 106.324 42.3268 106.547 42.1068C107.305 41.3568 108.064 40.6068 108.822 39.8578C109.596 39.0918 110.372 38.3248 111.147 37.5588C112.291 38.7658 113.434 39.9728 114.578 41.1798C115.324 41.9678 116.718 42.8118 117.397 41.4738C117.73 40.8178 117.717 40.0528 117.752 39.3338C117.858 37.2218 117.965 35.1088 118.069 32.9968C118.113 32.1178 118.158 31.2388 118.202 30.3598C118.244 29.5268 118.232 28.7158 117.844 27.9478C117.171 26.6098 115.712 25.9408 114.255 26.1018ZM37.3753 66.0028C35.3773 57.7208 36.8503 48.6948 41.3983 41.4918C45.8843 34.3838 53.1263 29.2918 61.4643 27.9198C70.0403 26.5078 78.9493 29.2398 85.4953 34.8968C88.1853 37.2208 90.5003 40.0288 92.2193 43.1418C92.7113 44.0348 93.1583 44.9488 93.5593 45.8868C93.7673 46.3738 93.9613 46.8658 94.1443 47.3618C94.2243 47.5788 94.4483 47.9338 94.2833 48.1118C94.0673 48.3458 93.8493 48.5798 93.6343 48.8138C92.1503 50.4168 90.6623 52.0178 89.1763 53.6198C86.0723 56.9648 82.9573 60.3038 79.8443 63.6418C78.2493 65.3508 76.6553 67.0598 75.0613 68.7688C74.4963 69.3728 73.9323 69.9788 73.3673 70.5818C72.9723 71.0008 72.1263 71.8978 71.4613 71.5988C70.6023 71.2118 70.4923 69.6598 70.3353 68.8358C69.9103 66.6248 69.4983 64.4118 69.0863 62.1978C68.2513 57.7058 67.5053 53.1898 66.5863 48.7148C66.1903 46.7848 65.0863 44.7408 62.9133 44.5118C61.4503 44.3578 60.0763 45.1098 59.0563 46.1008C58.0113 47.1148 57.0373 48.2058 56.0363 49.2618C54.4253 50.9628 52.8123 52.6638 51.2013 54.3648C46.8033 59.0068 42.4053 63.6488 38.0083 68.2898C37.7693 67.5348 37.5583 66.7728 37.3753 66.0028C37.5583 66.7718 35.9603 60.1328 37.3753 66.0028ZM70.5183 69.7998C70.5273 69.8418 70.5223 69.8178 70.5183 69.7998V69.7998ZM95.3073 65.0278C93.6873 73.1868 88.5713 80.7408 81.5453 85.1978C74.2103 89.8518 64.8513 90.9228 56.6683 87.9618C54.2943 87.1028 52.0543 85.9428 49.9633 84.5298C48.9703 83.8598 47.9913 83.1188 47.1083 82.3078C46.9363 82.1498 46.7633 81.9908 46.5883 81.8328C46.4983 81.7518 46.4083 81.6698 46.3183 81.5888C46.2983 81.5708 46.1543 81.4318 46.2353 81.5218C44.4073 79.6718 42.7443 77.7438 41.3463 75.5368C40.7523 74.6008 40.2153 73.6268 39.7323 72.6298C39.4993 72.1508 39.2783 71.6648 39.0703 71.1738C38.9843 70.9708 38.7453 70.6298 38.9083 70.4638C39.1243 70.2448 39.3383 70.0258 39.5543 69.8058C40.9783 68.3548 42.4023 66.9038 43.8263 65.4518C46.9193 62.3018 50.0103 59.1518 53.1013 56.0028C54.7433 54.3308 56.3823 52.6578 58.0243 50.9858C59.0063 49.9858 59.9573 48.9388 60.9913 47.9918C61.4303 47.6018 62.1673 47.0468 62.7843 47.2908C63.6203 47.6138 63.7823 48.9128 63.9153 49.6658C64.3153 51.9368 64.7063 54.2108 65.1033 56.4818C65.8673 60.8648 66.6333 65.2468 67.3713 69.6338C67.5353 70.6108 67.6853 71.6578 68.1963 72.5258C69.1033 74.0688 70.5833 75.0848 72.4453 74.7668C74.0363 74.4958 75.1943 73.4048 76.2893 72.3068C77.9393 70.6508 79.5903 68.9948 81.2403 67.3398C86.0243 62.5388 90.8153 57.7438 95.6153 52.9568C96.2463 56.9688 96.1603 61.0548 95.3073 65.0278C96.2183 60.7858 94.8843 67.1538 95.3073 65.0278Z" fill="white"/>
<path d="M145.494 61.3488C145.494 66.1248 146.511 69.7468 148.546 72.2148C150.579 74.6838 153.534 75.9178 157.409 75.9178C161.316 75.9178 164.267 74.6878 166.261 72.2268C168.255 69.7668 169.252 66.1418 169.252 61.3488C169.252 56.6058 168.259 53.0078 166.273 50.5558C164.288 48.1038 161.349 46.8778 157.458 46.8778C153.551 46.8778 150.58 48.1118 148.547 50.5808C146.511 53.0478 145.494 56.6368 145.494 61.3488ZM173.594 61.3488C173.594 66.9928 172.166 71.4308 169.312 74.6628C166.459 77.8948 162.491 79.5108 157.41 79.5108C152.216 79.5108 148.209 77.9228 145.387 74.7478C142.564 71.5718 141.154 67.0888 141.154 61.3008C141.154 55.5598 142.568 51.1108 145.399 47.9498C148.229 44.7908 152.25 43.2098 157.459 43.2098C162.525 43.2098 166.48 44.8178 169.326 48.0338C172.17 51.2518 173.594 55.6898 173.594 61.3488Z" fill="white"/>
<path d="M195.78 76.1578C198.513 76.1578 200.495 75.4148 201.725 73.9278C202.954 72.4398 203.57 70.0408 203.57 66.7278V65.8838C203.57 62.1378 202.947 59.4648 201.701 57.8638C200.455 56.2638 198.466 55.4638 195.731 55.4638C193.382 55.4638 191.586 56.3778 190.34 58.2028C189.094 60.0278 188.471 62.6038 188.471 65.9328C188.471 69.3088 189.089 71.8578 190.328 73.5788C191.567 75.2988 193.382 76.1578 195.78 76.1578ZM203.787 75.4828H203.569C201.72 78.1698 198.954 79.5108 195.272 79.5108C191.814 79.5108 189.126 78.3288 187.204 75.9648C185.283 73.6008 184.322 70.2398 184.322 65.8828C184.322 61.5258 185.287 58.1398 187.216 55.7288C189.146 53.3168 191.831 52.1108 195.273 52.1108C198.858 52.1108 201.608 53.4138 203.521 56.0178H203.835L203.666 54.1118L203.569 52.2558V41.4988H207.573V79.0288H204.317L203.787 75.4828Z" fill="white"/>
<path d="M230.989 76.1578C233.723 76.1578 235.705 75.4148 236.934 73.9278C238.164 72.4398 238.781 70.0408 238.781 66.7278V65.8838C238.781 62.1378 238.156 59.4648 236.911 57.8638C235.664 56.2638 233.675 55.4638 230.941 55.4638C228.593 55.4638 226.796 56.3778 225.549 58.2028C224.305 60.0278 223.681 62.6038 223.681 65.9328C223.681 69.3088 224.3 71.8578 225.538 73.5788C226.776 75.2988 228.593 76.1578 230.989 76.1578ZM238.997 75.4828H238.78C236.93 78.1698 234.164 79.5108 230.483 79.5108C227.024 79.5108 224.337 78.3288 222.414 75.9648C220.493 73.6008 219.533 70.2398 219.533 65.8828C219.533 61.5258 220.498 58.1398 222.427 55.7288C224.358 53.3168 227.042 52.1108 230.484 52.1108C234.068 52.1108 236.818 53.4138 238.732 56.0178H239.045L238.877 54.1118L238.78 52.2558V41.4988H242.784V79.0288H239.526L238.997 75.4828Z" fill="white"/>
<path d="M273.121 79.0288H253.947V76.3028L268.37 55.7048H254.839V52.5928H272.76V55.7048L258.53 75.9178H273.121V79.0288Z" fill="white"/>
</svg>
