<?xml version="1.0" encoding="UTF-8"?>
<svg width="250px" height="73px" viewBox="0 0 250 73" version="1.1" xmlns="http://www.w3.org/2000/svg" xmlns:xlink="http://www.w3.org/1999/xlink">
    <title>img_blue</title>
    <g id="Page-1" stroke="none" stroke-width="1" fill="none" fill-rule="evenodd">
        <g id="Artboard" transform="translate(-959.000000, -2003.000000)" fill="#1C7EFF" fill-rule="nonzero">
            <g id="img_blue" transform="translate(959.000000, 2003.000000)">
                <path d="M90.2549813,2.09734099 C88.5879813,2.28334099 86.9219813,2.46834099 85.2549813,2.65334099 C84.2939813,2.75934099 83.3329813,2.86634099 82.3729813,2.97334099 C81.5379813,3.06634099 80.6009813,3.13534099 79.9959813,3.79234099 C79.1259813,4.74034099 79.9559813,5.95934099 80.6639813,6.70534099 C81.3689813,7.45034099 82.0739813,8.19434099 82.7799813,8.94034099 C83.0219813,9.19534099 83.2619813,9.45034099 83.5059813,9.70534099 C83.5629813,9.76634099 82.9329813,10.384341 82.8589813,10.464341 C81.6229813,11.808341 80.3869813,13.152341 79.1519813,14.496341 C79.0909813,14.561341 79.0319813,14.626341 78.9719813,14.692341 C77.7529813,12.993341 76.4359813,11.358341 75.0182813,9.82334099 C74.3862813,9.14034099 73.7432813,8.47334099 73.0872813,7.81434099 C73.0332813,7.76134099 72.7352813,7.38834099 72.6702813,7.44934099 C72.4952813,7.61234099 72.3192813,7.77634099 72.1442813,7.93834099 C71.9872813,8.08534099 71.8292813,8.23234099 71.6702813,8.38034099 C71.6042813,8.44234099 72.0332813,8.85534099 72.0872813,8.91734099 C72.6962813,9.64634099 73.3162813,10.364341 73.9132813,11.105341 C74.5802813,11.932341 75.2082813,12.795341 75.8122813,13.668341 C76.1109813,14.103341 76.4059813,14.543341 76.6939813,14.986341 C76.8459813,15.221341 76.9969813,15.457341 77.1449813,15.694341 C77.2189813,15.812341 77.2909813,15.930341 77.3619813,16.050341 C77.4989813,16.279341 77.5149813,16.276341 77.3349813,16.471341 C76.5679813,17.305341 75.8042813,18.142341 75.0342813,18.975341 C71.4932813,12.323341 65.9892813,6.68234099 59.1812813,3.37234099 C51.1442813,-0.536659011 41.7692813,-1.03565901 33.3132813,1.81434099 C24.8612813,4.66434099 17.6972813,10.747341 13.3742813,18.527341 C9.05828126,26.289341 7.72428126,35.640341 9.55128126,44.319341 C9.79028126,45.459341 10.0862813,46.586341 10.4342813,47.698341 C10.4902813,47.880341 10.5592813,47.923341 10.4202813,48.070341 C10.3212813,48.174341 10.2242813,48.277341 10.1252813,48.381341 C9.93428126,48.583341 9.74128126,48.787341 9.54928126,48.989341 C9.14928126,49.412341 8.74828126,49.835341 8.34728126,50.258341 C7.02728126,51.652341 5.70628126,53.046341 4.38528126,54.439341 C2.97628126,55.926341 1.56828126,57.414341 0.158281257,58.901341 C0.137281257,58.923341 -0.0207187429,59.063341 0.00228125706,59.086341 C0.345281257,59.417341 0.688281257,59.747341 1.03228126,60.078341 C1.14628126,60.188341 1.23328126,60.396341 1.36128126,60.266341 C1.50728126,60.118341 1.65428126,59.969341 1.79928126,59.820341 C3.60328126,57.981341 5.40828126,56.143341 7.21328126,54.303341 C8.57128126,52.919341 9.93028126,51.534341 11.2882813,50.150341 C13.4952813,55.822341 17.0702813,60.816341 21.6832813,64.768341 C28.6222813,70.712341 37.9632813,73.677341 47.0622813,72.872341 C51.5492813,72.475341 55.9362813,71.197341 59.9432813,69.143341 C63.3062813,67.419341 66.2612813,65.152341 68.9762813,62.539341 C71.3652813,60.238341 73.3802813,57.449341 74.9792813,54.557341 C77.1199813,50.683341 78.5559813,46.380341 79.1479813,41.993341 C79.6599813,38.180341 79.5999813,34.308341 78.9589813,30.515341 C78.6529813,28.716341 78.2219813,26.938341 77.6629813,25.201341 C77.5329813,24.794341 77.3939813,24.390341 77.2499813,23.988341 C77.1799813,23.790341 77.0179813,23.578341 77.1769813,23.420341 C77.3709813,23.226341 77.5659813,23.033341 77.7589813,22.839341 C78.4609813,22.140341 79.1659813,21.444341 79.8699813,20.748341 C81.8079813,24.778341 82.9679813,29.277341 83.3769813,33.719341 C83.8029813,38.322341 83.3849813,42.999341 82.1579813,47.456341 C81.4179813,50.143341 80.4369813,52.777341 79.1909813,55.272341 C78.0789813,57.501341 76.8109813,59.614341 75.4442813,61.695341 C76.9969813,62.677341 78.5489813,63.660341 80.1019813,64.642341 C82.0679813,61.162341 83.7889813,57.595341 85.0299813,53.788341 C86.4239813,49.511341 87.2639813,44.989341 87.2869813,40.482341 C87.3099813,35.859341 86.6449813,31.295341 85.2039813,26.899341 C84.5109813,24.783341 83.6589813,22.717341 82.6389813,20.737341 C82.4049813,20.282341 82.1759813,19.825341 81.9229813,19.379341 C81.8619813,19.273341 81.8029813,19.167341 81.7419813,19.062341 C81.6479813,18.898341 81.7589813,18.880341 81.8799813,18.761341 C82.1029813,18.541341 82.3239813,18.322341 82.5469813,18.102341 C83.3049813,17.352341 84.0639813,16.602341 84.8219813,15.853341 C85.5959813,15.087341 86.3719813,14.320341 87.1469813,13.554341 C88.2909813,14.761341 89.4339813,15.968341 90.5779813,17.175341 C91.3239813,17.963341 92.7179813,18.807341 93.3969813,17.469341 C93.7299813,16.813341 93.7169813,16.048341 93.7519813,15.329341 C93.8579813,13.217341 93.9649813,11.104341 94.0689813,8.99234099 C94.1129813,8.11334099 94.1579813,7.23434099 94.2019813,6.35534099 C94.2439813,5.52234099 94.2319813,4.71134099 93.8439813,3.94334099 C93.1709813,2.60534099 91.7119813,1.93634099 90.2549813,2.09734099 Z M13.3752813,41.998341 C11.3772813,33.716341 12.8502813,24.690341 17.3982813,17.487341 C21.8842813,10.379341 29.1262813,5.28734099 37.4642813,3.91534099 C46.0402813,2.50334099 54.9492813,5.23534099 61.4952813,10.892341 C64.1852813,13.216341 66.5002813,16.024341 68.2192813,19.137341 C68.7112813,20.030341 69.1582813,20.944341 69.5592813,21.882341 C69.7672813,22.369341 69.9612813,22.861341 70.1442813,23.357341 C70.2242813,23.574341 70.4482813,23.929341 70.2832813,24.107341 C70.0672813,24.341341 69.8492813,24.575341 69.6342813,24.809341 C68.1502813,26.412341 66.6622813,28.013341 65.1762813,29.615341 C62.0722813,32.960341 58.9572813,36.299341 55.8442813,39.637341 C54.2492813,41.346341 52.6552813,43.055341 51.0612813,44.764341 C50.4962813,45.368341 49.9322813,45.974341 49.3672813,46.577341 C48.9722813,46.996341 48.1262813,47.893341 47.4612813,47.594341 C46.6022813,47.207341 46.4922813,45.655341 46.3352813,44.831341 C45.9102813,42.620341 45.4982813,40.407341 45.0862813,38.193341 C44.2512813,33.701341 43.5052813,29.185341 42.5862813,24.710341 C42.1902813,22.780341 41.0862813,20.736341 38.9132813,20.507341 C37.4502813,20.353341 36.0762813,21.105341 35.0562813,22.096341 C34.0112813,23.110341 33.0372813,24.201341 32.0362813,25.257341 C30.4252813,26.958341 28.8122813,28.659341 27.2012813,30.360341 C22.8032813,35.002341 18.4052813,39.644341 14.0082813,44.285341 C13.7692813,43.530341 13.5582813,42.768341 13.3752813,41.998341 C13.5582813,42.767341 11.9602813,36.128341 13.3752813,41.998341 Z M57.5452813,61.193341 C50.2102813,65.847341 40.8512813,66.918341 32.6682813,63.957341 C30.2942813,63.098341 28.0542813,61.938341 25.9632813,60.525341 C24.9702813,59.855341 23.9912813,59.114341 23.1082813,58.303341 C22.9362813,58.145341 22.7632813,57.986341 22.5882813,57.828341 L22.3182813,57.584341 L22.3182813,57.584341 C22.2982813,57.566341 22.1542813,57.427341 22.2352813,57.517341 C20.4072813,55.667341 18.7442813,53.739341 17.3462813,51.532341 C16.7522813,50.596341 16.2152813,49.622341 15.7322813,48.625341 C15.4992813,48.146341 15.2782813,47.660341 15.0702813,47.169341 C14.9842813,46.966341 14.7452813,46.625341 14.9082813,46.459341 L15.5542813,45.801341 L15.5542813,45.801341 L19.8262813,41.447341 L19.8262813,41.447341 C22.9192813,38.297341 26.0102813,35.147341 29.1012813,31.998341 C30.7432813,30.326341 32.3822813,28.653341 34.0242813,26.981341 C35.0062813,25.981341 35.9572813,24.934341 36.9912813,23.987341 C37.4302813,23.597341 38.1672813,23.042341 38.7842813,23.286341 C39.6202813,23.609341 39.7822813,24.908341 39.9152813,25.661341 C40.3152813,27.932341 40.7062813,30.206341 41.1032813,32.477341 C41.8672813,36.860341 42.6332813,41.242341 43.3712813,45.629341 C43.5352813,46.606341 43.6852813,47.653341 44.1962813,48.521341 C45.1032813,50.064341 46.5832813,51.080341 48.4452813,50.762341 C50.0362813,50.491341 51.1942813,49.400341 52.2892813,48.302341 C53.9392813,46.646341 55.5902813,44.990341 57.2402813,43.335341 C62.0242813,38.534341 66.8152813,33.739341 71.6152813,28.952341 C72.2462813,32.964341 72.1602813,37.050341 71.3072813,41.023341 C71.7707725,38.8651305 71.653148,39.4533065 71.4814513,40.2719671 L71.4453292,40.4438086 C71.2930463,41.1666407 71.1275914,41.9318138 71.2866188,41.1274959 L71.3072813,41.023341 C69.6872813,49.182341 64.5712813,56.736341 57.5452813,61.193341 Z M46.2982813,7.46834099 C49.1802813,8.05134099 51.9692813,9.13634099 54.4552813,10.711341 C56.7342813,12.154341 58.6762813,13.934341 60.4512813,15.954341 C59.3592813,16.807341 58.2702813,17.660341 57.1792813,18.513341 C56.0212813,17.005341 54.7742813,15.661341 53.3242813,14.429341 C51.6642813,13.018341 49.6782813,11.918341 47.6502813,11.135341 C43.4002813,9.49234099 38.7552813,9.31134099 34.3342813,10.325341 C31.6772813,10.934341 29.1152813,12.064341 26.8152813,13.521341 C25.7352813,14.206341 24.7292813,14.975341 23.7422813,15.786341 C23.6572813,15.856341 23.6492813,15.909341 23.5792813,15.828341 C23.4822813,15.718341 23.3852813,15.608341 23.2882813,15.498341 L22.7182813,14.850341 L22.7182813,14.850341 C25.6682813,12.061341 29.0012813,9.82634099 32.8462813,8.45634099 C37.1302813,6.93034099 41.8392813,6.56634099 46.2982813,7.46834099 Z" id="Shape"></path>
                <path d="M121.493981,37.344341 C121.493981,42.120341 122.510981,45.742341 124.545981,48.210341 C126.578981,50.679341 129.533981,51.913341 133.408981,51.913341 C137.315981,51.913341 140.266981,50.683341 142.260981,48.222341 C144.254981,45.762341 145.251981,42.137341 145.251981,37.344341 C145.251981,32.601341 144.258981,29.003341 142.272981,26.551341 C140.287981,24.099341 137.348981,22.873341 133.457981,22.873341 C129.550981,22.873341 126.579981,24.107341 124.546981,26.576341 C122.510981,29.043341 121.493981,32.632341 121.493981,37.344341 Z M149.593981,37.344341 C149.593981,42.988341 148.165981,47.426341 145.311981,50.658341 C142.458981,53.890341 138.490981,55.506341 133.409981,55.506341 C128.215981,55.506341 124.208981,53.918341 121.386981,50.743341 C118.563981,47.567341 117.153981,43.084341 117.153981,37.296341 C117.153981,31.555341 118.567981,27.106341 121.398981,23.945341 C124.228981,20.786341 128.249981,19.205341 133.458981,19.205341 C138.524981,19.205341 142.479981,20.813341 145.325981,24.029341 C148.169981,27.247341 149.593981,31.685341 149.593981,37.344341 Z" id="Shape"></path>
                <path d="M171.779981,52.153341 C174.512981,52.153341 176.494981,51.410341 177.724981,49.923341 C178.953981,48.435341 179.569981,46.036341 179.569981,42.723341 L179.569981,41.879341 C179.569981,38.133341 178.946981,35.460341 177.700981,33.859341 C176.454981,32.259341 174.465981,31.459341 171.730981,31.459341 C169.381981,31.459341 167.585981,32.373341 166.339981,34.198341 C165.093981,36.023341 164.470981,38.599341 164.470981,41.928341 C164.470981,45.304341 165.088981,47.853341 166.327981,49.574341 C167.566981,51.294341 169.381981,52.153341 171.779981,52.153341 Z M179.786981,51.478341 L179.568981,51.478341 C177.719981,54.165341 174.953981,55.506341 171.271981,55.506341 C167.813981,55.506341 165.125981,54.324341 163.203981,51.960341 C161.282981,49.596341 160.321981,46.235341 160.321981,41.878341 C160.321981,37.521341 161.286981,34.135341 163.215981,31.724341 C165.145981,29.312341 167.830981,28.106341 171.272981,28.106341 C174.857981,28.106341 177.607981,29.409341 179.520981,32.013341 L179.834981,32.013341 L179.665981,30.107341 L179.568981,28.251341 L179.568981,17.494341 L183.572981,17.494341 L183.572981,55.024341 L180.316981,55.024341 L179.786981,51.478341 Z" id="Shape"></path>
                <path d="M206.988981,52.153341 C209.722981,52.153341 211.704981,51.410341 212.933981,49.923341 C214.163981,48.435341 214.780981,46.036341 214.780981,42.723341 L214.780981,41.879341 C214.780981,38.133341 214.155981,35.460341 212.910981,33.859341 C211.663981,32.259341 209.674981,31.459341 206.940981,31.459341 C204.592981,31.459341 202.795981,32.373341 201.548981,34.198341 C200.304981,36.023341 199.680981,38.599341 199.680981,41.928341 C199.680981,45.304341 200.299981,47.853341 201.537981,49.574341 C202.775981,51.294341 204.592981,52.153341 206.988981,52.153341 Z M214.996981,51.478341 L214.779981,51.478341 C212.929981,54.165341 210.163981,55.506341 206.482981,55.506341 C203.023981,55.506341 200.336981,54.324341 198.413981,51.960341 C196.492981,49.596341 195.532981,46.235341 195.532981,41.878341 C195.532981,37.521341 196.497981,34.135341 198.426981,31.724341 C200.357981,29.312341 203.041981,28.106341 206.483981,28.106341 C210.067981,28.106341 212.817981,29.409341 214.731981,32.013341 L215.044981,32.013341 L214.876981,30.107341 L214.779981,28.251341 L214.779981,17.494341 L218.783981,17.494341 L218.783981,55.024341 L215.525981,55.024341 L214.996981,51.478341 Z" id="Shape"></path>
                <polygon id="Path" points="249.120981 55.024341 229.946981 55.024341 229.946981 52.298341 244.369981 31.700341 230.838981 31.700341 230.838981 28.588341 248.759981 28.588341 248.759981 31.700341 234.529981 51.913341 249.120981 51.913341"></polygon>
            </g>
        </g>
    </g>
</svg>